<svg width="470" height="220" viewBox="0 0 470 220" fill="none" xmlns="http://www.w3.org/2000/svg">
<path d="M12.8993 220C10.5239 220 8.3139 219.708 6.26925 219.125C4.22461 218.509 2.55581 217.651 1.26287 216.549C0.811846 216.192 0.481094 215.82 0.270615 215.431C0.0902051 215.01 0 214.491 0 213.876C0 213.065 0.225513 212.353 0.676538 211.737C1.15763 211.121 1.69886 210.813 2.30023 210.813C2.63098 210.813 2.9467 210.878 3.24738 211.008C3.57814 211.105 3.96902 211.299 4.42005 211.591C5.71299 212.466 7.02096 213.114 8.34397 213.535C9.66698 213.924 11.1253 214.119 12.7189 214.119C14.7034 214.119 16.2219 213.762 17.2743 213.049C18.3267 212.336 18.8529 211.316 18.8529 209.987C18.8529 208.982 18.3567 208.172 17.3645 207.557C16.4023 206.941 14.6734 206.358 12.1777 205.807C9.38133 205.191 7.14124 204.446 5.45741 203.571C3.80365 202.696 2.58588 201.61 1.8041 200.314C1.05239 199.018 0.676538 197.446 0.676538 195.599C0.676538 193.558 1.21777 191.727 2.30023 190.107C3.41276 188.454 4.93121 187.174 6.85559 186.267C8.81003 185.327 11.005 184.857 13.4406 184.857C17.7103 184.857 21.2283 186.008 23.9946 188.308C24.4456 188.697 24.7613 189.102 24.9417 189.523C25.1522 189.912 25.2574 190.398 25.2574 190.982C25.2574 191.792 25.0169 192.505 24.5358 193.12C24.0848 193.736 23.5586 194.044 22.9572 194.044C22.6264 194.044 22.3107 193.995 22.01 193.898C21.7394 193.801 21.3485 193.59 20.8374 193.266C19.6046 192.424 18.462 191.792 17.4096 191.371C16.3873 190.949 15.0793 190.739 13.4857 190.739C11.6515 190.739 10.2082 191.128 9.15582 191.905C8.10343 192.651 7.57723 193.687 7.57723 195.016C7.57723 195.794 7.77267 196.442 8.16356 196.96C8.58452 197.446 9.26106 197.884 10.1932 198.273C11.1554 198.662 12.5084 199.067 14.2524 199.488C18.3417 200.46 21.2734 201.708 23.0474 203.231C24.8515 204.754 25.7536 206.844 25.7536 209.501C25.7536 211.575 25.2123 213.406 24.1299 214.993C23.0775 216.581 21.5741 217.813 19.6196 218.688C17.6952 219.563 15.4551 220 12.8993 220Z" fill="black"/>
<path d="M40.6991 219.951C38.3537 219.951 36.294 219.449 34.52 218.445C32.746 217.408 31.3779 215.966 30.4157 214.119C29.4535 212.239 28.9724 210.036 28.9724 207.508C28.9724 204.98 29.4535 202.793 30.4157 200.946C31.3779 199.067 32.746 197.625 34.52 196.62C36.294 195.616 38.3537 195.113 40.6991 195.113C43.0444 195.113 45.1041 195.616 46.8781 196.62C48.6522 197.625 50.0203 199.067 50.9824 200.946C51.9446 202.793 52.4257 204.98 52.4257 207.508C52.4257 210.036 51.9446 212.239 50.9824 214.119C50.0203 215.966 48.6522 217.408 46.8781 218.445C45.1041 219.449 43.0444 219.951 40.6991 219.951ZM40.6991 214.362C44.0066 214.362 45.6603 212.077 45.6603 207.508C45.6603 205.207 45.2244 203.49 44.3524 202.356C43.5105 201.222 42.2927 200.654 40.6991 200.654C37.3915 200.654 35.7378 202.939 35.7378 207.508C35.7378 212.077 37.3915 214.362 40.6991 214.362Z" fill="black"/>
<path d="M66.583 219.951C64.2978 219.951 62.2983 219.449 60.5844 218.445C58.8705 217.44 57.5475 216.014 56.6153 214.167C55.7133 212.32 55.2623 210.149 55.2623 207.654C55.2623 205.159 55.7434 202.971 56.7055 201.092C57.6978 199.18 59.0809 197.706 60.855 196.669C62.629 195.632 64.6737 195.113 66.9889 195.113C68.1917 195.113 69.3944 195.292 70.5971 195.648C71.8299 196.004 72.9274 196.507 73.8896 197.155C74.8217 197.77 75.2878 198.678 75.2878 199.877C75.2878 200.719 75.1074 201.416 74.7466 201.967C74.3857 202.485 73.9047 202.745 73.3033 202.745C72.9124 202.745 72.5365 202.68 72.1757 202.55C71.845 202.388 71.3939 202.161 70.8226 201.87C70.1912 201.513 69.6199 201.238 69.1087 201.043C68.6276 200.849 68.0714 200.752 67.4399 200.752C65.7561 200.752 64.4632 201.335 63.5611 202.502C62.6891 203.636 62.2532 205.305 62.2532 207.508C62.2532 209.712 62.6891 211.397 63.5611 212.563C64.4632 213.73 65.7561 214.313 67.4399 214.313C68.0714 214.313 68.6276 214.232 69.1087 214.07C69.5898 213.876 70.1762 213.584 70.8677 213.195C71.439 212.903 71.8901 212.693 72.2208 212.563C72.5516 212.401 72.9124 212.32 73.3033 212.32C73.8746 212.32 74.3406 212.596 74.7015 213.146C75.0923 213.697 75.2878 214.394 75.2878 215.237C75.2878 216.435 74.8217 217.327 73.8896 217.91C72.9274 218.558 71.8149 219.06 70.552 219.417C69.2892 219.773 67.9661 219.951 66.583 219.951Z" fill="black"/>
<path d="M81.834 219.854C80.8418 219.854 80.0149 219.563 79.3534 218.979C78.7219 218.396 78.4062 217.537 78.4062 216.403V198.662C78.4062 197.527 78.737 196.669 79.3985 196.085C80.06 195.502 80.8718 195.21 81.834 195.21C82.7962 195.21 83.593 195.502 84.2244 196.085C84.8859 196.669 85.2167 197.527 85.2167 198.662V216.403C85.2167 217.537 84.8859 218.396 84.2244 218.979C83.593 219.563 82.7962 219.854 81.834 219.854ZM81.834 191.322C80.6313 191.322 79.6841 190.998 78.9925 190.35C78.301 189.669 77.9552 188.762 77.9552 187.628C77.9552 186.494 78.301 185.603 78.9925 184.954C79.6841 184.306 80.6313 183.982 81.834 183.982C83.0067 183.982 83.9388 184.323 84.6304 185.003C85.352 185.651 85.7128 186.526 85.7128 187.628C85.7128 188.762 85.367 189.669 84.6755 190.35C83.9839 190.998 83.0367 191.322 81.834 191.322Z" fill="black"/>
<path d="M107.976 212.466C108.577 212.466 109.058 212.725 109.419 213.244C109.81 213.762 110.005 214.426 110.005 215.237C110.005 215.787 109.855 216.306 109.554 216.792C109.253 217.246 108.832 217.634 108.291 217.959C107.269 218.542 106.081 219.028 104.728 219.417C103.375 219.773 102.127 219.951 100.985 219.951C98.5792 219.951 96.4744 219.449 94.6703 218.445C92.8962 217.44 91.5281 216.014 90.5659 214.167C89.6037 212.288 89.1227 210.084 89.1227 207.557C89.1227 205.126 89.5887 202.971 90.5208 201.092C91.4529 199.212 92.7459 197.754 94.3997 196.717C96.0534 195.648 97.9327 195.113 100.037 195.113C102.052 195.113 103.811 195.599 105.314 196.571C106.848 197.511 108.036 198.872 108.878 200.654C109.719 202.404 110.14 204.462 110.14 206.828C110.14 207.54 109.975 208.091 109.644 208.48C109.344 208.837 108.908 209.015 108.336 209.015H95.7076C95.9181 210.927 96.4593 212.32 97.3313 213.195C98.2033 214.038 99.4511 214.459 101.075 214.459C101.947 214.459 102.729 214.345 103.42 214.119C104.112 213.892 104.878 213.584 105.72 213.195C106.141 213.001 106.547 212.839 106.938 212.709C107.329 212.547 107.675 212.466 107.976 212.466ZM100.218 200.168C98.9249 200.168 97.8876 200.622 97.1058 201.529C96.324 202.404 95.858 203.684 95.7076 205.369H104.412C104.322 203.652 103.916 202.356 103.195 201.481C102.503 200.606 101.511 200.168 100.218 200.168Z" fill="black"/>
<path d="M132.926 185.052C133.979 185.052 134.821 185.359 135.452 185.975C136.114 186.591 136.444 187.401 136.444 188.406V216.403C136.444 217.44 136.129 218.283 135.497 218.931C134.896 219.546 134.084 219.854 133.062 219.854C132.039 219.854 131.213 219.546 130.581 218.931C129.98 218.283 129.679 217.44 129.679 216.403V216.014C129.018 217.246 128.07 218.218 126.838 218.931C125.635 219.611 124.267 219.951 122.733 219.951C120.839 219.951 119.14 219.433 117.637 218.396C116.163 217.327 115.006 215.852 114.164 213.973C113.352 212.061 112.946 209.874 112.946 207.411C112.946 204.948 113.352 202.793 114.164 200.946C115.006 199.067 116.163 197.625 117.637 196.62C119.11 195.616 120.809 195.113 122.733 195.113C124.237 195.113 125.59 195.454 126.792 196.134C128.025 196.815 128.972 197.77 129.634 199.002V188.26C129.634 187.288 129.935 186.51 130.536 185.927C131.137 185.343 131.934 185.052 132.926 185.052ZM124.718 214.362C126.311 214.362 127.529 213.778 128.371 212.612C129.243 211.413 129.679 209.712 129.679 207.508C129.679 205.305 129.243 203.619 128.371 202.453C127.529 201.286 126.311 200.703 124.718 200.703C123.124 200.703 121.891 201.286 121.019 202.453C120.147 203.587 119.711 205.24 119.711 207.411C119.711 209.614 120.147 211.332 121.019 212.563C121.891 213.762 123.124 214.362 124.718 214.362Z" fill="black"/>
<path d="M151.431 195.113C154.679 195.113 157.084 195.972 158.648 197.689C160.211 199.374 160.993 201.967 160.993 205.467V216.452C160.993 217.521 160.707 218.364 160.136 218.979C159.565 219.563 158.768 219.854 157.745 219.854C156.783 219.854 156.002 219.546 155.4 218.931C154.829 218.283 154.543 217.456 154.543 216.452V216.111C154.092 217.31 153.34 218.25 152.288 218.931C151.236 219.611 150.003 219.951 148.59 219.951C147.086 219.951 145.718 219.627 144.485 218.979C143.283 218.331 142.32 217.424 141.599 216.257C140.907 215.091 140.561 213.795 140.561 212.369C140.561 210.619 140.967 209.242 141.779 208.237C142.621 207.233 143.959 206.503 145.793 206.05C147.627 205.596 150.138 205.369 153.325 205.369H154.498V204.494C154.498 203.133 154.212 202.145 153.641 201.529C153.1 200.914 152.183 200.606 150.89 200.606C149.597 200.606 147.733 201.092 145.297 202.064C144.606 202.421 144.019 202.599 143.538 202.599C142.877 202.599 142.35 202.356 141.96 201.87C141.569 201.351 141.373 200.687 141.373 199.877C141.373 199.229 141.509 198.694 141.779 198.273C142.05 197.851 142.486 197.463 143.087 197.106C144.14 196.49 145.417 196.004 146.921 195.648C148.454 195.292 149.958 195.113 151.431 195.113ZM150.078 214.896C151.401 214.896 152.468 214.426 153.28 213.487C154.092 212.515 154.498 211.267 154.498 209.744V208.918H153.731C151.296 208.918 149.582 209.128 148.59 209.55C147.627 209.971 147.146 210.732 147.146 211.834C147.146 212.741 147.417 213.487 147.958 214.07C148.53 214.621 149.236 214.896 150.078 214.896Z" fill="black"/>
<path d="M184.757 185.052C185.81 185.052 186.652 185.359 187.283 185.975C187.945 186.591 188.275 187.401 188.275 188.406V216.403C188.275 217.44 187.96 218.283 187.328 218.931C186.727 219.546 185.915 219.854 184.893 219.854C183.87 219.854 183.043 219.546 182.412 218.931C181.811 218.283 181.51 217.44 181.51 216.403V216.014C180.848 217.246 179.901 218.218 178.668 218.931C177.466 219.611 176.098 219.951 174.564 219.951C172.67 219.951 170.971 219.433 169.468 218.396C167.994 217.327 166.837 215.852 165.995 213.973C165.183 212.061 164.777 209.874 164.777 207.411C164.777 204.948 165.183 202.793 165.995 200.946C166.837 199.067 167.994 197.625 169.468 196.62C170.941 195.616 172.64 195.113 174.564 195.113C176.068 195.113 177.421 195.454 178.623 196.134C179.856 196.815 180.803 197.77 181.465 199.002V188.26C181.465 187.288 181.766 186.51 182.367 185.927C182.968 185.343 183.765 185.052 184.757 185.052ZM176.549 214.362C178.142 214.362 179.36 213.778 180.202 212.612C181.074 211.413 181.51 209.712 181.51 207.508C181.51 205.305 181.074 203.619 180.202 202.453C179.36 201.286 178.142 200.703 176.549 200.703C174.955 200.703 173.722 201.286 172.85 202.453C171.978 203.587 171.542 205.24 171.542 207.411C171.542 209.614 171.978 211.332 172.85 212.563C173.722 213.762 174.955 214.362 176.549 214.362Z" fill="black"/>
<path d="M211.065 212.466C211.666 212.466 212.147 212.725 212.508 213.244C212.899 213.762 213.094 214.426 213.094 215.237C213.094 215.787 212.944 216.306 212.643 216.792C212.343 217.246 211.922 217.634 211.381 217.959C210.358 218.542 209.171 219.028 207.817 219.417C206.464 219.773 205.217 219.951 204.074 219.951C201.668 219.951 199.564 219.449 197.76 218.445C195.986 217.44 194.617 216.014 193.655 214.167C192.693 212.288 192.212 210.084 192.212 207.557C192.212 205.126 192.678 202.971 193.61 201.092C194.542 199.212 195.835 197.754 197.489 196.717C199.143 195.648 201.022 195.113 203.127 195.113C205.141 195.113 206.9 195.599 208.404 196.571C209.937 197.511 211.125 198.872 211.967 200.654C212.809 202.404 213.23 204.462 213.23 206.828C213.23 207.54 213.064 208.091 212.734 208.48C212.433 208.837 211.997 209.015 211.426 209.015H198.797C199.007 210.927 199.549 212.32 200.421 213.195C201.293 214.038 202.54 214.459 204.164 214.459C205.036 214.459 205.818 214.345 206.509 214.119C207.201 213.892 207.968 213.584 208.81 213.195C209.231 213.001 209.637 212.839 210.027 212.709C210.418 212.547 210.764 212.466 211.065 212.466ZM203.307 200.168C202.014 200.168 200.977 200.622 200.195 201.529C199.413 202.404 198.947 203.684 198.797 205.369H207.502C207.412 203.652 207.006 202.356 206.284 201.481C205.592 200.606 204.6 200.168 203.307 200.168Z" fill="black"/>
<path d="M244.644 220C241.486 220 238.735 219.287 236.39 217.861C234.075 216.403 232.286 214.362 231.023 211.737C229.76 209.08 229.128 205.969 229.128 202.404C229.128 198.84 229.76 195.745 231.023 193.12C232.286 190.463 234.075 188.422 236.39 186.996C238.735 185.57 241.486 184.857 244.644 184.857C247.801 184.857 250.537 185.57 252.852 186.996C255.198 188.422 257.002 190.463 258.265 193.12C259.527 195.745 260.159 198.84 260.159 202.404C260.159 205.969 259.527 209.08 258.265 211.737C257.002 214.362 255.198 216.403 252.852 217.861C250.537 219.287 247.801 220 244.644 220ZM244.644 214.119C247.29 214.119 249.364 213.114 250.868 211.105C252.401 209.096 253.168 206.196 253.168 202.404C253.168 198.613 252.416 195.729 250.913 193.752C249.409 191.743 247.32 190.739 244.644 190.739C241.968 190.739 239.878 191.743 238.374 193.752C236.901 195.729 236.164 198.613 236.164 202.404C236.164 206.196 236.916 209.096 238.419 211.105C239.923 213.114 241.998 214.119 244.644 214.119Z" fill="black"/>
<path d="M282.67 195.21C283.722 195.21 284.549 195.518 285.151 196.134C285.782 196.75 286.098 197.592 286.098 198.662V216.5C286.098 217.505 285.767 218.315 285.106 218.931C284.474 219.546 283.647 219.854 282.625 219.854C281.663 219.854 280.896 219.563 280.325 218.979C279.753 218.396 279.468 217.618 279.468 216.646V216.16C278.776 217.391 277.859 218.331 276.717 218.979C275.604 219.627 274.341 219.951 272.928 219.951C270.132 219.951 268.042 219.125 266.659 217.472C265.306 215.787 264.629 213.26 264.629 209.89V198.662C264.629 197.592 264.93 196.75 265.531 196.134C266.163 195.518 267.004 195.21 268.057 195.21C269.109 195.21 269.936 195.518 270.537 196.134C271.139 196.75 271.439 197.592 271.439 198.662V210.036C271.439 211.461 271.71 212.515 272.251 213.195C272.823 213.876 273.68 214.216 274.822 214.216C276.145 214.216 277.213 213.73 278.025 212.758C278.866 211.785 279.287 210.505 279.287 208.918V198.662C279.287 197.592 279.588 196.75 280.189 196.134C280.791 195.518 281.618 195.21 282.67 195.21Z" fill="black"/>
<path d="M299.487 219.951C297.653 219.951 296.06 219.789 294.706 219.465C293.353 219.141 292.166 218.623 291.143 217.91C290.692 217.618 290.347 217.229 290.106 216.743C289.865 216.257 289.745 215.706 289.745 215.091C289.745 214.345 289.941 213.73 290.331 213.244C290.722 212.725 291.203 212.466 291.775 212.466C292.166 212.466 292.557 212.547 292.947 212.709C293.338 212.839 293.744 213.001 294.165 213.195C295.007 213.616 295.834 213.957 296.646 214.216C297.458 214.443 298.465 214.556 299.668 214.556C300.72 214.556 301.532 214.378 302.103 214.021C302.705 213.665 303.005 213.179 303.005 212.563C303.005 212.109 302.87 211.753 302.599 211.494C302.359 211.202 301.893 210.943 301.201 210.716C300.51 210.489 299.412 210.214 297.909 209.89C295.233 209.339 293.308 208.513 292.136 207.411C290.963 206.309 290.377 204.77 290.377 202.793C290.377 201.335 290.783 200.023 291.594 198.856C292.436 197.689 293.579 196.782 295.022 196.134C296.465 195.454 298.089 195.113 299.893 195.113C301.186 195.113 302.449 195.292 303.682 195.648C304.915 196.004 306.012 196.507 306.974 197.155C307.906 197.77 308.373 198.678 308.373 199.877C308.373 200.654 308.177 201.303 307.786 201.821C307.395 202.339 306.914 202.599 306.343 202.599C305.651 202.599 304.824 202.307 303.862 201.724C303.111 201.303 302.419 200.995 301.788 200.8C301.186 200.573 300.465 200.46 299.623 200.46C298.69 200.46 297.954 200.654 297.413 201.043C296.871 201.4 296.601 201.902 296.601 202.55C296.601 203.231 296.916 203.749 297.548 204.106C298.179 204.462 299.397 204.818 301.201 205.175C303.216 205.596 304.794 206.115 305.937 206.73C307.08 207.314 307.906 208.059 308.418 208.966C308.929 209.874 309.184 211.024 309.184 212.417C309.184 214.718 308.297 216.549 306.523 217.91C304.779 219.271 302.434 219.951 299.487 219.951Z" fill="black"/>
<path d="M330.622 212.466C331.223 212.466 331.704 212.725 332.065 213.244C332.456 213.762 332.651 214.426 332.651 215.237C332.651 215.787 332.501 216.306 332.2 216.792C331.9 217.246 331.479 217.634 330.938 217.959C329.915 218.542 328.728 219.028 327.374 219.417C326.021 219.773 324.774 219.951 323.631 219.951C321.225 219.951 319.121 219.449 317.317 218.445C315.543 217.44 314.174 216.014 313.212 214.167C312.25 212.288 311.769 210.084 311.769 207.557C311.769 205.126 312.235 202.971 313.167 201.092C314.099 199.212 315.392 197.754 317.046 196.717C318.7 195.648 320.579 195.113 322.684 195.113C324.698 195.113 326.457 195.599 327.961 196.571C329.494 197.511 330.682 198.872 331.524 200.654C332.366 202.404 332.787 204.462 332.787 206.828C332.787 207.54 332.621 208.091 332.291 208.48C331.99 208.837 331.554 209.015 330.983 209.015H318.354C318.564 210.927 319.106 212.32 319.978 213.195C320.85 214.038 322.097 214.459 323.721 214.459C324.593 214.459 325.375 214.345 326.066 214.119C326.758 213.892 327.525 213.584 328.367 213.195C328.788 213.001 329.194 212.839 329.584 212.709C329.975 212.547 330.321 212.466 330.622 212.466ZM322.864 200.168C321.571 200.168 320.534 200.622 319.752 201.529C318.97 202.404 318.504 203.684 318.354 205.369H327.059C326.969 203.652 326.563 202.356 325.841 201.481C325.149 200.606 324.157 200.168 322.864 200.168Z" fill="black"/>
<path d="M361.043 220C358.668 220 356.458 219.708 354.413 219.125C352.369 218.509 350.7 217.651 349.407 216.549C348.956 216.192 348.625 215.82 348.415 215.431C348.234 215.01 348.144 214.491 348.144 213.876C348.144 213.065 348.37 212.353 348.821 211.737C349.302 211.121 349.843 210.813 350.444 210.813C350.775 210.813 351.091 210.878 351.392 211.008C351.722 211.105 352.113 211.299 352.564 211.591C353.857 212.466 355.165 213.114 356.488 213.535C357.811 213.924 359.269 214.119 360.863 214.119C362.848 214.119 364.366 213.762 365.418 213.049C366.471 212.336 366.997 211.316 366.997 209.987C366.997 208.982 366.501 208.172 365.509 207.557C364.546 206.941 362.818 206.358 360.322 205.807C357.525 205.191 355.285 204.446 353.602 203.571C351.948 202.696 350.73 201.61 349.948 200.314C349.197 199.018 348.821 197.446 348.821 195.599C348.821 193.558 349.362 191.727 350.444 190.107C351.557 188.454 353.075 187.174 355 186.267C356.954 185.327 359.149 184.857 361.585 184.857C365.854 184.857 369.372 186.008 372.139 188.308C372.59 188.697 372.905 189.102 373.086 189.523C373.296 189.912 373.402 190.398 373.402 190.982C373.402 191.792 373.161 192.505 372.68 193.12C372.229 193.736 371.703 194.044 371.101 194.044C370.771 194.044 370.455 193.995 370.154 193.898C369.884 193.801 369.493 193.59 368.982 193.266C367.749 192.424 366.606 191.792 365.554 191.371C364.531 190.949 363.223 190.739 361.63 190.739C359.796 190.739 358.352 191.128 357.3 191.905C356.248 192.651 355.721 193.687 355.721 195.016C355.721 195.794 355.917 196.442 356.308 196.96C356.729 197.446 357.405 197.884 358.337 198.273C359.3 198.662 360.653 199.067 362.397 199.488C366.486 200.46 369.418 201.708 371.192 203.231C372.996 204.754 373.898 206.844 373.898 209.501C373.898 211.575 373.356 213.406 372.274 214.993C371.222 216.581 369.718 217.813 367.764 218.688C365.839 219.563 363.599 220 361.043 220Z" fill="black"/>
<path d="M388.167 195.113C391.414 195.113 393.82 195.972 395.383 197.689C396.947 199.374 397.728 201.967 397.728 205.467V216.452C397.728 217.521 397.443 218.364 396.871 218.979C396.3 219.563 395.503 219.854 394.481 219.854C393.519 219.854 392.737 219.546 392.136 218.931C391.564 218.283 391.279 217.456 391.279 216.452V216.111C390.828 217.31 390.076 218.25 389.024 218.931C387.971 219.611 386.738 219.951 385.325 219.951C383.822 219.951 382.454 219.627 381.221 218.979C380.018 218.331 379.056 217.424 378.334 216.257C377.643 215.091 377.297 213.795 377.297 212.369C377.297 210.619 377.703 209.242 378.515 208.237C379.357 207.233 380.695 206.503 382.529 206.05C384.363 205.596 386.874 205.369 390.061 205.369H391.234V204.494C391.234 203.133 390.948 202.145 390.377 201.529C389.835 200.914 388.918 200.606 387.625 200.606C386.333 200.606 384.468 201.092 382.033 202.064C381.341 202.421 380.755 202.599 380.274 202.599C379.612 202.599 379.086 202.356 378.695 201.87C378.304 201.351 378.109 200.687 378.109 199.877C378.109 199.229 378.244 198.694 378.515 198.273C378.785 197.851 379.221 197.463 379.823 197.106C380.875 196.49 382.153 196.004 383.656 195.648C385.19 195.292 386.693 195.113 388.167 195.113ZM386.814 214.896C388.137 214.896 389.204 214.426 390.016 213.487C390.828 212.515 391.234 211.267 391.234 209.744V208.918H390.467C388.031 208.918 386.317 209.128 385.325 209.55C384.363 209.971 383.882 210.732 383.882 211.834C383.882 212.741 384.153 213.487 384.694 214.07C385.265 214.621 385.972 214.896 386.814 214.896Z" fill="black"/>
<path d="M416.306 195.113C418.23 195.113 419.929 195.616 421.403 196.62C422.876 197.625 424.019 199.067 424.83 200.946C425.672 202.793 426.093 204.948 426.093 207.411C426.093 209.874 425.672 212.061 424.83 213.973C424.019 215.852 422.861 217.327 421.358 218.396C419.884 219.433 418.2 219.951 416.306 219.951C414.773 219.951 413.389 219.611 412.157 218.931C410.924 218.218 409.977 217.246 409.315 216.014V216.403C409.315 217.44 409.015 218.283 408.413 218.931C407.812 219.546 407 219.854 405.978 219.854C404.955 219.854 404.128 219.546 403.497 218.931C402.896 218.283 402.595 217.44 402.595 216.403V188.406C402.595 187.401 402.911 186.591 403.542 185.975C404.204 185.359 405.061 185.052 406.113 185.052C407.105 185.052 407.902 185.343 408.503 185.927C409.105 186.51 409.405 187.288 409.405 188.26V198.905C410.067 197.706 410.999 196.782 412.202 196.134C413.435 195.454 414.803 195.113 416.306 195.113ZM414.322 214.362C415.915 214.362 417.148 213.762 418.02 212.563C418.892 211.332 419.328 209.614 419.328 207.411C419.328 205.24 418.892 203.587 418.02 202.453C417.148 201.286 415.915 200.703 414.322 200.703C412.728 200.703 411.495 201.303 410.623 202.502C409.751 203.668 409.315 205.337 409.315 207.508C409.315 209.712 409.751 211.413 410.623 212.612C411.495 213.778 412.728 214.362 414.322 214.362Z" fill="black"/>
<path d="M447.8 212.466C448.402 212.466 448.883 212.725 449.244 213.244C449.635 213.762 449.83 214.426 449.83 215.237C449.83 215.787 449.68 216.306 449.379 216.792C449.078 217.246 448.657 217.634 448.116 217.959C447.094 218.542 445.906 219.028 444.553 219.417C443.2 219.773 441.952 219.951 440.809 219.951C438.404 219.951 436.299 219.449 434.495 218.445C432.721 217.44 431.353 216.014 430.391 214.167C429.429 212.288 428.947 210.084 428.947 207.557C428.947 205.126 429.414 202.971 430.346 201.092C431.278 199.212 432.571 197.754 434.225 196.717C435.878 195.648 437.758 195.113 439.862 195.113C441.877 195.113 443.636 195.599 445.139 196.571C446.673 197.511 447.861 198.872 448.702 200.654C449.544 202.404 449.965 204.462 449.965 206.828C449.965 207.54 449.8 208.091 449.469 208.48C449.168 208.837 448.732 209.015 448.161 209.015H435.532C435.743 210.927 436.284 212.32 437.156 213.195C438.028 214.038 439.276 214.459 440.9 214.459C441.772 214.459 442.553 214.345 443.245 214.119C443.937 213.892 444.703 213.584 445.545 213.195C445.966 213.001 446.372 212.839 446.763 212.709C447.154 212.547 447.5 212.466 447.8 212.466ZM440.043 200.168C438.75 200.168 437.712 200.622 436.931 201.529C436.149 202.404 435.683 203.684 435.532 205.369H444.237C444.147 203.652 443.741 202.356 443.019 201.481C442.328 200.606 441.336 200.168 440.043 200.168Z" fill="black"/>
<path d="M467.068 195.21C467.97 195.146 468.677 195.373 469.188 195.891C469.729 196.377 470 197.122 470 198.127C470 199.196 469.759 199.99 469.278 200.509C468.797 201.027 467.94 201.351 466.707 201.481L465.354 201.627C463.701 201.821 462.498 202.404 461.746 203.376C461.025 204.349 460.664 205.596 460.664 207.119V216.403C460.664 217.537 460.333 218.396 459.672 218.979C459.04 219.563 458.243 219.854 457.281 219.854C456.289 219.854 455.462 219.563 454.8 218.979C454.169 218.396 453.853 217.537 453.853 216.403V198.564C453.853 197.495 454.184 196.669 454.846 196.085C455.507 195.502 456.304 195.21 457.236 195.21C458.138 195.21 458.89 195.502 459.491 196.085C460.092 196.636 460.393 197.414 460.393 198.419V199.731C460.934 198.338 461.746 197.268 462.829 196.523C463.941 195.778 465.144 195.356 466.437 195.259L467.068 195.21Z" fill="black"/>
<path d="M84.7436 140.695C66.1419 140.695 48.6652 133.413 36.676 120.692C23.9325 107.171 44.6773 87.4146 57.432 101.264C63.9158 108.306 74.1268 112.51 84.7436 112.51C94.8843 112.51 102.014 106.615 103.048 100.915C103.398 98.982 103.439 92.276 89.2369 87.1206C87.247 86.3984 84.7638 85.6205 82.1348 84.7979C69.1043 80.7187 51.2583 75.1314 43.0739 60.8555C26.9995 32.8202 54.6505 5.41682 82.9145 5.41682C105.494 5.41682 122.256 19.0246 123.107 19.7288C136.765 32.116 119.151 51.2583 104.766 41.3752C104.65 41.2813 94.8708 31.8307 82.9376 32.6772C75.1 33.2333 66.1898 38.557 68.0174 47.005C70.1627 56.9214 91.1161 57.7607 99.1495 60.6771C127.021 70.795 134.002 90.656 131.242 105.869C127.58 126.049 108.025 140.695 84.7436 140.695Z" fill="#FF5E57"/>
<path d="M357.14 140.695C338.538 140.695 321.062 133.413 309.072 120.692C296.329 107.171 317.074 87.4146 329.828 101.264C336.312 108.306 346.523 112.51 357.14 112.51C367.281 112.51 374.41 106.615 375.444 100.915C375.795 98.982 375.835 92.276 361.633 87.1206C359.643 86.3984 357.16 85.6205 354.531 84.7979C341.501 80.7187 323.655 75.1314 315.47 60.8555C299.396 32.8202 327.047 5.41682 355.311 5.41682C377.89 5.41682 394.652 19.0246 395.504 19.7288C409.161 32.116 391.548 51.2583 377.163 41.3752C377.046 41.2813 367.267 31.8307 355.334 32.6772C347.497 33.2333 338.586 38.557 340.414 47.005C342.559 56.9214 363.513 57.7607 371.546 60.6771C399.418 70.795 406.399 90.656 403.639 105.869C399.977 126.049 380.423 140.695 357.14 140.695V140.695Z" fill="#FF5E57"/>
<path d="M221.282 6.15424C183.568 6.15424 152.995 36.2414 152.995 73.3561C152.995 94.2795 162.717 112.963 177.952 125.288C179.753 126.744 180.699 128.962 180.552 131.227L178.79 158.284C178.515 162.491 183.778 164.786 186.861 161.804L207.179 142.16C208.787 140.605 211.042 139.827 213.301 140.091C215.919 140.396 218.58 140.559 221.282 140.559C258.995 140.559 289.568 110.471 289.568 73.3568C289.568 36.2422 258.995 6.15424 221.282 6.15424V6.15424Z" fill="#CFF5FF"/>
<path d="M221.282 6.15424C217.462 6.15424 213.718 6.46769 210.069 7.06138C242.447 12.3258 267.143 40.0007 267.143 73.3561C267.143 110.471 236.57 140.558 198.856 140.558C196.155 140.558 193.494 140.395 190.876 140.09C188.618 139.826 186.363 140.604 184.754 142.159L179.509 147.23L178.79 158.284C178.516 162.491 183.778 164.786 186.862 161.804L207.18 142.16C208.788 140.605 211.043 139.827 213.302 140.091C215.92 140.396 218.581 140.559 221.282 140.559C258.995 140.559 289.569 110.471 289.569 73.3568C289.568 36.2422 258.995 6.15424 221.282 6.15424V6.15424Z" fill="#B8F0FF"/>
<path d="M101.121 55.6062C96.2515 53.8389 74.9371 52.5136 73.5056 45.8964C72.4434 40.9743 79.7869 38.3323 83.3488 38.0796C92.1514 37.4498 99.983 44.449 100.846 45.2493C118.932 61.8847 146.197 31.6567 126.753 15.6135C124.82 14.0151 107.173 0 82.9145 0C50.01 0 20.71 33.0289 38.1703 63.4801C48.3827 81.2921 69.1312 85.6046 87.2657 92.1915C96.1939 95.4322 97.6994 98.9141 97.5267 99.9794C96.9855 102.962 92.2426 107.094 84.7436 107.094C75.701 107.094 67.0576 103.569 61.6203 97.6639C44.2834 78.8401 15.1874 105.937 32.5311 124.339C36.5654 128.621 41.2141 132.381 46.3472 135.518C52.473 139.262 58.4673 130.104 52.3407 126.362C48.056 123.743 44.1809 120.61 40.8217 117.045C33.4744 109.249 45.5728 96.5336 53.2437 104.865C60.7741 113.045 72.5503 117.928 84.7436 117.928C98.3251 117.928 107.156 109.644 108.571 101.85C109.11 98.8794 109.449 88.6713 91.2103 82.0512C76.0554 76.5455 56.5739 73.2246 47.9783 58.2316C34.5508 34.8114 58.4015 10.8344 82.9145 10.8344C102.88 10.8344 117.901 22.5809 119.365 23.7654C126.961 30.7871 117.304 42.9634 108.303 37.1529C105.686 34.8056 95.3051 26.3669 82.528 27.2748C71.5741 28.0519 59.9825 36.3354 62.53 48.113C65.6538 62.555 86.128 61.7366 97.1784 65.748C113.348 71.6177 129.338 84.9951 125.72 104.934C122.53 122.517 105.297 135.278 84.7444 135.278C82.5691 135.278 80.358 135.166 78.1738 134.943C70.9671 134.214 69.7898 144.984 77.0002 145.718C79.5724 145.979 82.1789 146.112 84.7444 146.112C110.755 146.112 132.632 129.581 136.766 106.805C139.912 89.452 132.202 66.8891 101.121 55.6062V55.6062Z" fill="#060606"/>
<path d="M373.518 55.6063C368.648 53.8389 347.334 52.5136 345.902 45.8971C344.837 40.9751 352.186 38.3324 355.745 38.0796C364.546 37.4498 372.38 44.449 373.243 45.2493C391.33 61.8862 418.534 31.7123 399.151 15.6142C398.355 14.9555 391.048 9.05551 379.748 4.70832C373.014 2.11691 368.866 12.1828 375.601 14.7735C384.855 18.3342 390.915 23.0822 391.764 23.7669C399.358 30.7885 389.699 42.9627 380.699 37.1529C378.082 34.8057 367.707 26.3677 354.925 27.2755C343.971 28.0527 332.377 36.3361 334.926 48.1144C338.051 62.5557 358.525 61.7374 369.575 65.7487C385.745 71.6184 401.734 84.9958 398.118 104.935C394.927 122.518 377.694 135.28 357.142 135.28C340.149 135.28 324.14 128.634 313.219 117.046C305.872 109.25 317.97 96.5351 325.641 104.866C333.171 113.046 344.948 117.929 357.142 117.929C370.722 117.929 379.553 109.645 380.968 101.851C381.507 98.8802 381.847 88.672 363.608 82.0519C348.453 76.5463 328.972 73.2254 320.376 58.2323C313.969 47.0592 316.349 37.5617 319.475 31.5628C325.046 20.8649 337.15 12.8581 350.312 11.1645C357.497 10.2393 356.017 -0.508448 348.832 0.425413C332.103 2.57842 316.648 12.8885 309.459 26.6927C303.325 38.4703 303.718 51.5357 310.567 63.4823C320.779 81.2943 341.528 85.6068 359.663 92.1937C368.591 95.4344 370.097 98.9163 369.924 99.9816C369.383 102.964 364.64 107.096 357.142 107.096C348.099 107.096 339.455 103.571 334.018 97.6661C316.682 78.8416 287.585 105.939 304.928 124.341C317.969 138.179 336.999 146.115 357.142 146.115C383.151 146.115 405.029 129.584 409.163 106.807C412.309 89.4521 404.598 66.8892 373.518 55.6063V55.6063Z" fill="#060606"/>
<path d="M221.282 0.737419C180.537 0.737419 147.388 33.3142 147.388 73.3561C147.388 95.1361 157.216 115.578 174.352 129.44C174.768 129.776 174.993 130.317 174.956 130.886L173.195 157.942C172.617 166.809 184.249 171.992 190.827 165.631L211.145 145.987C212.591 144.59 219.791 145.973 221.282 145.973C262.027 145.973 295.176 113.397 295.176 73.3554C295.174 33.3142 262.027 0.737419 221.282 0.737419V0.737419ZM221.282 135.141C214.872 135.141 208.353 133.362 203.214 138.331L184.53 156.395L186.147 131.567C186.407 127.573 184.689 123.672 181.551 121.135C166.966 109.336 158.602 91.9221 158.602 73.3568C158.602 39.2886 186.72 11.5718 221.282 11.5718C255.845 11.5718 283.963 39.2886 283.963 73.3568C283.961 107.424 255.843 135.141 221.282 135.141V135.141Z" fill="#060606"/>
<path d="M190.383 67.0906C183.168 67.0906 183.156 77.9243 190.383 77.9243C197.597 77.9243 197.609 67.0906 190.383 67.0906Z" fill="#060606"/>
<path d="M219.935 67.0906C212.72 67.0906 212.708 77.9243 219.935 77.9243C227.15 77.9243 227.162 67.0906 219.935 67.0906Z" fill="#060606"/>
<path d="M249.488 67.0906C242.273 67.0906 242.261 77.9243 249.488 77.9243C256.703 77.9243 256.714 67.0906 249.488 67.0906Z" fill="#060606"/>
</svg>
