<svg width="148" height="168" viewBox="0 0 148 168" fill="none" xmlns="http://www.w3.org/2000/svg">
<path d="M74.2862 5C36.5723 5 6 35.0872 6 72.2018C6 93.1252 15.7221 111.809 30.957 124.133C32.7577 125.59 33.7041 127.808 33.5568 130.072L31.7942 157.13C31.5198 161.337 36.7823 163.631 39.8658 160.65L60.1837 141.006C61.7916 139.451 64.0468 138.673 66.3058 138.936C68.9236 139.242 71.5847 139.404 74.2862 139.404C112 139.404 142.573 109.317 142.573 72.2026C142.573 35.0879 111.999 5 74.2862 5V5Z" fill="#CFF5FF"/>
<path d="M74.2862 5C70.4664 5 66.7221 5.31345 63.0736 5.90714C95.4518 11.1716 120.148 38.8465 120.148 72.2018C120.148 109.316 89.5749 139.404 51.861 139.404C49.1595 139.404 46.4984 139.241 43.8806 138.936C41.6224 138.672 39.3672 139.45 37.7585 141.005L32.514 146.076L31.7942 157.13C31.5206 161.337 36.7823 163.631 39.8665 160.65L60.1845 141.006C61.7924 139.451 64.0476 138.673 66.3065 138.936C68.9243 139.242 71.5854 139.404 74.2869 139.404C112 139.404 142.574 109.317 142.574 72.2026C142.572 35.0879 111.999 5 74.2862 5V5Z" fill="#B8F0FF"/>
<path d="M73.8932 0C33.1482 0 0 32.5768 0 72.6187C0 94.3986 9.82747 114.84 26.964 128.703C27.3797 129.039 27.6047 129.579 27.568 130.148L25.8062 157.205C25.2283 166.071 36.861 171.255 43.4383 164.894L63.7563 145.25C65.2027 143.852 72.4027 145.236 73.894 145.236C114.639 145.236 147.787 112.66 147.787 72.618C147.786 32.5768 114.638 0 73.8932 0V0ZM73.8932 134.404C67.4834 134.404 60.9644 132.625 55.8253 137.593L37.1421 155.657L38.7589 130.829C39.0191 126.835 37.3006 122.934 34.1625 120.397C19.5779 108.599 11.2133 91.1847 11.2133 72.6194C11.2133 38.5512 39.3315 10.8344 73.894 10.8344C108.456 10.8344 136.575 38.5512 136.575 72.6194C136.573 106.687 108.455 134.404 73.8932 134.404V134.404Z" fill="#060606"/>
<path d="M42.9943 66.3531C35.7794 66.3531 35.7674 77.1868 42.9943 77.1868C50.2085 77.1868 50.2205 66.3531 42.9943 66.3531Z" fill="#060606"/>
<path d="M72.5471 66.3531C65.3321 66.3531 65.3201 77.1868 72.5471 77.1868C79.7613 77.1868 79.774 66.3531 72.5471 66.3531Z" fill="#060606"/>
<path d="M102.1 66.3531C94.8846 66.3531 94.8726 77.1868 102.1 77.1868C109.314 77.1868 109.326 66.3531 102.1 66.3531Z" fill="#060606"/>
</svg>
