<svg width="383" height="169" viewBox="0 0 383 169" fill="none" xmlns="http://www.w3.org/2000/svg">
<path d="M57.5377 140.695C38.936 140.695 21.4593 133.413 9.4701 120.692C-3.27339 107.171 17.4714 87.4146 30.2261 101.264C36.71 108.306 46.9209 112.51 57.5377 112.51C67.6784 112.51 74.8081 106.615 75.8419 100.915C76.1925 98.982 76.2329 92.276 62.031 87.1206C60.0411 86.3984 57.5579 85.6205 54.9289 84.7979C41.8984 80.7187 24.0524 75.1314 15.868 60.8555C-0.206369 32.8202 27.4446 5.41683 55.7086 5.41683C78.2878 5.41683 95.0498 19.0246 95.9012 19.7288C109.559 32.116 91.9454 51.2583 77.5604 41.3752C77.4438 41.2813 67.6649 31.8307 55.7318 32.6772C47.8942 33.2333 38.9839 38.557 40.8115 47.005C42.9569 56.9215 63.9102 57.7607 71.9437 60.6771C99.8152 70.795 106.796 90.656 104.036 105.869C100.374 126.049 80.8196 140.695 57.5377 140.695Z" fill="#FF5E57"/>
<path d="M329.934 140.695C311.333 140.695 293.856 133.413 281.867 120.692C269.123 107.171 289.868 87.4146 302.623 101.264C309.106 108.306 319.317 112.51 329.934 112.51C340.075 112.51 347.205 106.615 348.238 100.915C348.589 98.982 348.629 92.276 334.427 87.1206C332.438 86.3984 329.954 85.6205 327.325 84.7979C314.295 80.7187 296.449 75.1314 288.265 60.8555C272.19 32.8202 299.841 5.41683 328.105 5.41683C350.684 5.41683 367.446 19.0246 368.298 19.7288C381.955 32.116 364.342 51.2583 349.957 41.3752C349.84 41.2813 340.061 31.8307 328.128 32.6772C320.291 33.2333 311.38 38.557 313.208 47.005C315.353 56.9215 336.307 57.7607 344.34 60.6771C372.212 70.795 379.193 90.656 376.433 105.869C372.772 126.049 353.217 140.695 329.934 140.695V140.695Z" fill="#FF5E57"/>
<path d="M194.076 6.15425C156.362 6.15425 125.79 36.2414 125.79 73.3561C125.79 94.2795 135.512 112.963 150.747 125.288C152.547 126.744 153.494 128.962 153.346 131.227L151.584 158.284C151.309 162.491 156.572 164.786 159.655 161.804L179.973 142.16C181.581 140.605 183.836 139.827 186.095 140.091C188.713 140.396 191.374 140.559 194.076 140.559C231.79 140.559 262.363 110.471 262.363 73.3568C262.363 36.2422 231.789 6.15425 194.076 6.15425V6.15425Z" fill="#CFF5FF"/>
<path d="M194.076 6.15425C190.256 6.15425 186.512 6.4677 182.863 7.06138C215.241 12.3258 239.937 40.0007 239.937 73.3561C239.937 110.471 209.364 140.558 171.651 140.558C168.949 140.558 166.288 140.395 163.67 140.09C161.412 139.826 159.157 140.604 157.548 142.159L152.304 147.23L151.584 158.284C151.31 162.491 156.572 164.786 159.656 161.804L179.974 142.16C181.582 140.605 183.837 139.827 186.096 140.091C188.714 140.396 191.375 140.559 194.076 140.559C231.79 140.559 262.363 110.471 262.363 73.3568C262.362 36.2422 231.789 6.15425 194.076 6.15425V6.15425Z" fill="#B8F0FF"/>
<path d="M73.9155 55.6062C69.0455 53.8389 47.7312 52.5136 46.2997 45.8964C45.2375 40.9743 52.581 38.3323 56.1428 38.0796C64.9455 37.4498 72.7771 44.449 73.6405 45.2493C91.7264 61.8847 118.991 31.6567 99.5468 15.6135C97.6145 14.0151 79.9674 0 55.7085 0C22.8041 0 -6.49593 33.0289 10.9643 63.4801C21.1767 81.2921 41.9253 85.6046 60.0598 92.1915C68.988 95.4322 70.4935 98.9141 70.3208 99.9794C69.7796 102.962 65.0367 107.094 57.5377 107.094C48.4951 107.094 39.8517 103.569 34.4143 97.6639C17.0774 78.8401 -12.0185 105.937 5.32513 124.339C9.35942 128.621 14.0082 132.381 19.1413 135.518C25.2671 139.262 31.2614 130.104 25.1348 126.362C20.8501 123.743 16.975 120.61 13.6157 117.045C6.26848 109.249 18.3669 96.5336 26.0378 104.865C33.5682 113.045 45.3444 117.928 57.5377 117.928C71.1191 117.928 79.9502 109.644 81.3652 101.85C81.9041 98.8794 82.2435 88.6713 64.0044 82.0512C48.8494 76.5455 29.3679 73.2246 20.7723 58.2316C7.34489 34.8114 31.1956 10.8344 55.7085 10.8344C75.6744 10.8344 90.6956 22.5809 92.1592 23.7654C99.7553 30.7871 90.0983 42.9634 81.0968 37.1529C78.4798 34.8056 68.0992 26.3669 55.3221 27.2748C44.3681 28.0519 32.7765 36.3354 35.324 48.113C38.4479 62.555 58.9221 61.7366 69.9725 65.748C86.1425 71.6177 102.132 84.9951 98.5145 104.934C95.3241 122.517 78.0911 135.278 57.5384 135.278C55.3632 135.278 53.1521 135.166 50.9679 134.943C43.7611 134.214 42.5838 144.984 49.7943 145.718C52.3664 145.979 54.973 146.112 57.5384 146.112C83.5487 146.112 105.426 129.581 109.56 106.805C112.706 89.452 104.996 66.8891 73.9155 55.6062V55.6062Z" fill="#060606"/>
<path d="M346.312 55.6063C341.442 53.8389 320.128 52.5136 318.696 45.8971C317.631 40.9751 324.98 38.3324 328.539 38.0796C337.34 37.4498 345.174 44.449 346.037 45.2493C364.124 61.8862 391.329 31.7123 371.945 15.6142C371.149 14.9555 363.842 9.0555 352.543 4.70832C345.808 2.11691 341.66 12.1828 348.395 14.7735C357.649 18.3342 363.71 23.0822 364.558 23.7669C372.152 30.7885 362.493 42.9627 353.493 37.1529C350.876 34.8057 340.501 26.3677 327.719 27.2755C316.765 28.0527 305.172 36.3361 307.721 48.1144C310.845 62.5557 331.319 61.7374 342.369 65.7487C358.539 71.6184 374.528 84.9958 370.912 104.935C367.721 122.518 350.488 135.28 329.936 135.28C312.943 135.28 296.934 128.634 286.013 117.046C278.666 109.25 290.764 96.5351 298.435 104.866C305.965 113.046 317.742 117.929 329.936 117.929C343.516 117.929 352.348 109.645 353.763 101.851C354.301 98.8802 354.641 88.672 336.402 82.0519C321.247 76.5463 301.766 73.2254 293.17 58.2323C286.764 47.0592 289.144 37.5617 292.269 31.5628C297.84 20.8649 309.944 12.8581 323.106 11.1645C330.291 10.2393 328.811 -0.508452 321.626 0.425409C304.897 2.57842 289.443 12.8884 282.253 26.6927C276.119 38.4703 276.512 51.5357 283.362 63.4823C293.573 81.2943 314.323 85.6068 332.457 92.1937C341.385 95.4344 342.891 98.9163 342.718 99.9816C342.177 102.964 337.434 107.096 329.936 107.096C320.893 107.096 312.249 103.571 306.812 97.6661C289.476 78.8416 260.379 105.939 277.722 124.341C290.763 138.179 309.793 146.115 329.936 146.115C355.945 146.115 377.823 129.584 381.957 106.807C385.103 89.452 377.392 66.8892 346.312 55.6063V55.6063Z" fill="#060606"/>
<path d="M194.076 0.737419C153.331 0.737419 120.182 33.3142 120.182 73.3561C120.182 95.1361 130.01 115.578 147.146 129.44C147.562 129.776 147.787 130.317 147.75 130.886L145.989 157.942C145.411 166.809 157.043 171.992 163.621 165.631L183.939 145.987C185.385 144.59 192.585 145.973 194.076 145.973C234.821 145.973 267.97 113.397 267.97 73.3554C267.968 33.3142 234.821 0.737419 194.076 0.737419V0.737419ZM194.076 135.141C187.666 135.141 181.147 133.362 176.008 138.331L157.324 156.395L158.941 131.567C159.201 127.573 157.483 123.672 154.345 121.135C139.76 109.336 131.396 91.9221 131.396 73.3568C131.396 39.2886 159.514 11.5718 194.076 11.5718C228.639 11.5718 256.757 39.2886 256.757 73.3568C256.755 107.424 228.637 135.141 194.076 135.141V135.141Z" fill="#060606"/>
<path d="M163.177 67.0906C155.962 67.0906 155.95 77.9243 163.177 77.9243C170.391 77.9243 170.403 67.0906 163.177 67.0906Z" fill="#060606"/>
<path d="M192.729 67.0906C185.514 67.0906 185.503 77.9243 192.729 77.9243C199.944 77.9243 199.956 67.0906 192.729 67.0906Z" fill="#060606"/>
<path d="M222.282 67.0906C215.067 67.0906 215.055 77.9243 222.282 77.9243C229.497 77.9243 229.508 67.0906 222.282 67.0906Z" fill="#060606"/>
</svg>
