<svg width="500" height="500" viewBox="0 0 500 500" fill="none" xmlns="http://www.w3.org/2000/svg">
<path d="M251.329 14.9062C123.733 14.9062 20.2998 104.603 20.2998 215.251C20.2998 277.628 53.1919 333.329 104.735 370.071C110.828 374.414 114.029 381.026 113.531 387.776L107.568 468.441C106.64 480.983 124.444 487.824 134.876 478.935L203.616 420.371C209.056 415.735 216.686 413.416 224.329 414.202C233.185 415.113 242.189 415.598 251.329 415.598C378.924 415.598 482.36 325.9 482.36 215.253C482.36 104.605 378.921 14.9062 251.329 14.9062V14.9062Z" fill="#CFF5FF"/>
<path d="M251.328 14.9062C238.405 14.9062 225.737 15.8406 213.393 17.6105C322.937 33.3051 406.49 115.811 406.49 215.251C406.49 325.898 303.054 415.595 175.458 415.595C166.319 415.595 157.316 415.111 148.459 414.2C140.819 413.414 133.189 415.733 127.747 420.369L110.003 435.486L107.568 468.441C106.642 480.983 124.444 487.824 134.878 478.935L203.619 420.371C209.059 415.735 216.689 413.416 224.331 414.202C233.188 415.113 242.191 415.598 251.331 415.598C378.924 415.598 482.362 325.9 482.362 215.253C482.357 104.605 378.921 14.9062 251.328 14.9062V14.9062Z" fill="#B8F0FF"/>
<path d="M249.999 0C112.148 0 0 97.1191 0 216.494C0 281.425 33.2487 342.366 91.2259 383.694C92.632 384.696 93.3933 386.306 93.2693 388.003L87.3085 468.665C85.3536 495.098 124.71 510.551 146.962 491.588L215.703 433.024C220.597 428.857 244.956 432.983 250.001 432.983C387.852 432.983 500 335.866 500 216.491C499.995 97.1191 387.849 0 249.999 0V0ZM249.999 400.689C228.313 400.689 206.257 395.386 188.87 410.198L125.661 464.051L131.131 390.033C132.011 378.126 126.197 366.497 115.58 358.933C66.2369 323.758 37.9375 271.843 37.9375 216.496C37.9375 114.93 133.068 32.2998 250.001 32.2998C366.934 32.2998 462.065 114.93 462.065 216.496C462.06 318.059 366.929 400.689 249.999 400.689V400.689Z" fill="#060606"/>
<path d="M145.46 197.814C121.05 197.814 121.01 230.112 145.46 230.112C169.867 230.112 169.908 197.814 145.46 197.814Z" fill="#060606"/>
<path d="M245.444 197.814C221.034 197.814 220.994 230.112 245.444 230.112C269.852 230.112 269.895 197.814 245.444 197.814Z" fill="#060606"/>
<path d="M345.427 197.814C321.017 197.814 320.976 230.112 345.427 230.112C369.837 230.112 369.875 197.814 345.427 197.814Z" fill="#060606"/>
</svg>
