<svg width="737" height="526" viewBox="0 0 737 526" fill="none" xmlns="http://www.w3.org/2000/svg">
<g clip-path="url(#clip0)">
<path d="M109.259 372.866C108.655 371.963 107.857 371.201 106.922 370.635C105.986 370.068 104.937 369.711 103.847 369.589C102.757 369.466 101.653 369.581 100.613 369.926C99.5725 370.27 98.6214 370.835 97.8264 371.581L74.1293 359.507L75.6024 373.109L97.8798 382.49C99.2384 383.725 101.009 384.425 102.856 384.458C104.702 384.491 106.497 383.854 107.9 382.668C109.303 381.481 110.216 379.828 110.466 378.022C110.717 376.215 110.287 374.381 109.259 372.866H109.259Z" fill="#A0616A"/>
<path d="M88.1996 378.341C87.7709 378.535 87.3055 378.638 86.8337 378.643C86.362 378.648 85.8945 378.555 85.4616 378.37L62.9527 368.731C55.2564 365.437 49.0343 359.495 45.4439 352.011L33.6104 327.354C32.7371 326.246 32.0935 324.98 31.7164 323.627C31.3394 322.273 31.2362 320.86 31.4129 319.467C31.5896 318.075 32.0426 316.73 32.7461 315.51C33.4496 314.291 34.3897 313.22 35.5128 312.359C36.6358 311.499 37.9197 310.865 39.291 310.494C40.6623 310.124 42.0942 310.024 43.5048 310.2C44.9153 310.376 46.2769 310.825 47.5115 311.521C48.7462 312.217 49.8298 313.146 50.7004 314.256L71.5008 352.351L90.7072 366.673C91.2569 367.085 91.6653 367.653 91.8771 368.302C92.0888 368.95 92.0938 369.647 91.8913 370.298L90.0061 376.309C89.8036 376.954 89.407 377.522 88.869 377.938C88.6628 378.098 88.4381 378.233 88.1996 378.341Z" fill="#CCCCCC"/>
<path d="M33.0896 298.356C43.2124 298.356 51.4186 290.255 51.4186 280.263C51.4186 270.27 43.2124 262.169 33.0896 262.169C22.9668 262.169 14.7606 270.27 14.7606 280.263C14.7606 290.255 22.9668 298.356 33.0896 298.356Z" fill="#A0616A"/>
<path d="M40.5139 517.614L49.6623 517.613L54.0153 482.778L40.5117 482.778L40.5139 517.614Z" fill="#A0616A"/>
<path d="M67.3075 525.999L38.5534 526L38.5529 515.033L56.1975 515.033C59.1439 515.032 61.9697 516.188 64.0532 518.244C66.1368 520.301 67.3074 523.09 67.3075 525.999L67.3075 525.999Z" fill="#2F2E41"/>
<path d="M10.6634 517.614L19.8118 517.613L24.1648 482.778L10.6611 482.778L10.6634 517.614Z" fill="#A0616A"/>
<path d="M37.457 525.999L8.7029 526L8.70239 515.033L26.3469 515.033C29.2934 515.032 32.1192 516.188 34.2027 518.244C36.2862 520.301 37.4568 523.09 37.457 525.999L37.457 525.999Z" fill="#2F2E41"/>
<path d="M7.46841 507.642C7.15318 507.287 6.91851 506.869 6.78015 506.417C6.64179 505.965 6.60293 505.489 6.66618 505.021L22.6844 386.429L62.4816 393.1L66.7289 390.585L55.7458 503.106C55.6544 503.866 55.3004 504.571 54.7436 505.103C54.1867 505.635 53.461 505.961 52.6889 506.026L40.6385 507.017C40.1594 507.057 39.6773 506.994 39.2248 506.834C38.7723 506.674 38.3599 506.419 38.0156 506.088C37.6713 505.757 37.403 505.357 37.229 504.914C37.055 504.472 36.9792 503.998 37.0068 503.524L40.1267 449.937C40.1322 449.846 40.1033 449.756 40.0456 449.685C39.9879 449.614 39.9055 449.566 39.8143 449.552C39.7231 449.537 39.6296 449.556 39.552 449.606C39.4743 449.655 39.418 449.731 39.3939 449.819L23.9589 506.322C23.7659 507.025 23.3439 507.646 22.758 508.089C22.1721 508.532 21.4547 508.773 20.7166 508.774H9.99508C9.51655 508.774 9.04354 508.673 8.60777 508.478C8.172 508.283 7.78353 507.998 7.46841 507.642Z" fill="#2F2E41"/>
<path d="M35.0297 394.73C34.5729 394.321 33.9857 394.084 33.37 394.059C32.7544 394.033 32.1492 394.222 31.6595 394.591L23.7029 400.7C23.27 401.033 22.7607 401.257 22.2199 401.351C21.679 401.444 21.1231 401.406 20.601 401.238C20.0788 401.07 19.6063 400.778 19.225 400.388C18.8437 399.998 18.5651 399.522 18.4139 399.001C14.5111 385.508 5.66893 351.546 7.84722 327.643C9.08195 314.094 20.9345 303.796 34.2687 304.66C43.3847 305.26 49.382 310.451 52.0939 320.089C58.7525 343.752 66.0701 387.158 67.4694 395.62C67.5798 396.276 67.4867 396.95 67.2022 397.553C66.9176 398.157 66.455 398.661 65.875 399C62.1104 401.231 57.8092 402.426 53.4185 402.46C48.1057 402.46 41.7355 400.635 35.0297 394.73Z" fill="#CCCCCC"/>
<path d="M38.0319 403.147C38.121 402.068 37.9692 400.982 37.5874 399.967C37.2055 398.952 36.6028 398.032 35.8216 397.271C35.0405 396.511 34.1 395.929 33.0663 395.566C32.0326 395.203 30.9309 395.068 29.8388 395.171L18.7405 371.235L11.3961 382.835L23.0612 403.787C23.3581 405.587 24.3134 407.217 25.7461 408.367C27.1787 409.518 28.9893 410.11 30.8346 410.031C32.6799 409.952 34.4318 409.208 35.7583 407.939C37.0848 406.671 37.8938 404.965 38.0319 403.147Z" fill="#A0616A"/>
<path d="M18.0378 394.626C17.579 394.518 17.1485 394.315 16.7742 394.032C16.3999 393.748 16.0903 393.39 15.8654 392.981L4.17948 371.684C0.183082 364.404 -0.9982 355.938 0.855368 347.861L6.95866 321.251C6.96419 319.848 7.24985 318.459 7.79929 317.165C8.34874 315.871 9.1512 314.696 10.1608 313.708C11.1704 312.72 12.3674 311.938 13.6832 311.407C14.9991 310.876 16.4081 310.607 17.8296 310.613C19.2512 310.62 20.6574 310.904 21.968 311.447C23.2785 311.991 24.4677 312.784 25.4675 313.782C26.4673 314.78 27.2581 315.962 27.7947 317.261C28.3313 318.561 28.6032 319.952 28.5948 321.355L21.146 364.003L27.3054 386.972C27.4806 387.631 27.4465 388.328 27.2077 388.967C26.969 389.606 26.5372 390.157 25.9707 390.546L20.7297 394.128C20.1675 394.511 19.5001 394.717 18.8165 394.717C18.5542 394.717 18.2928 394.687 18.0378 394.626Z" fill="#CCCCCC"/>
<path opacity="0.2" d="M27.108 339.341L20.3917 367.334L30.0931 390.907L23.3767 368.071L27.108 339.341Z" fill="black"/>
<path d="M22.6302 295.141C20.9998 295.171 19.3795 294.881 17.8631 294.29C17.1958 294.036 16.5032 293.827 15.8372 293.573C9.95535 291.33 6.08077 285.146 5.942 278.923C5.80324 272.7 9.06785 266.661 13.9156 262.68C18.7632 258.7 25.0422 256.656 31.3296 256.183C38.1021 255.674 45.7282 257.37 49.5126 262.937C50.5199 264.419 51.2244 266.217 50.6275 268.007C50.4487 268.547 50.1294 269.031 49.7015 269.411C48.0115 270.895 46.3266 269.779 44.6037 269.68C42.2356 269.545 40.1087 271.437 39.3442 273.654C38.5798 275.87 38.9163 278.311 39.5335 280.571C40.0037 281.932 40.3002 283.345 40.416 284.778C40.4658 285.496 40.3289 286.216 40.0182 286.867C39.7076 287.519 39.2335 288.081 38.6409 288.502C37.1612 289.384 35.2179 288.873 33.7372 287.992C32.2566 287.11 30.9772 285.885 29.3779 285.236C27.7786 284.587 25.6298 284.731 24.6989 286.17C24.4031 286.693 24.2029 287.264 24.1074 287.856C23.2729 291.609 23.4647 291.388 22.6302 295.141L22.6302 295.141Z" fill="#2F2E41"/>
<path d="M565.171 169.787H112.189C110.463 169.788 108.809 170.465 107.589 171.67C106.369 172.874 105.683 174.507 105.681 176.21V479.216C105.683 480.919 106.369 482.552 107.589 483.757C108.809 484.961 110.463 485.638 112.189 485.64H565.171C566.111 485.64 567.041 485.438 567.895 485.049C568.749 484.66 569.508 484.092 570.118 483.385C570.17 483.33 570.217 483.271 570.26 483.209C570.648 482.74 570.963 482.216 571.193 481.654C571.52 480.882 571.688 480.053 571.685 479.216V290.593H569.827V479.216C569.828 480.112 569.56 480.989 569.059 481.735C568.612 482.393 568.007 482.929 567.297 483.297C566.64 483.632 565.91 483.807 565.171 483.805H112.189C110.956 483.804 109.774 483.32 108.903 482.46C108.031 481.599 107.541 480.433 107.539 479.216V176.211C107.541 174.994 108.031 173.827 108.903 172.967C109.774 172.106 110.956 171.622 112.189 171.621H565.171C566.404 171.621 567.588 172.104 568.461 172.965C569.334 173.825 569.825 174.993 569.827 176.211V216.926H571.685V176.211C571.683 174.506 570.996 172.872 569.774 171.668C568.553 170.463 566.897 169.787 565.171 169.787Z" fill="#3F3D56"/>
<path d="M570.751 195.535H106.607V197.372H570.751V195.535Z" fill="#3F3D56"/>
<path d="M122.42 189.071C125.502 189.071 128.001 186.605 128.001 183.562C128.001 180.52 125.502 178.053 122.42 178.053C119.338 178.053 116.839 180.52 116.839 183.562C116.839 186.605 119.338 189.071 122.42 189.071Z" fill="#CCCCCC"/>
<path d="M138.465 189.071C141.547 189.071 144.046 186.605 144.046 183.562C144.046 180.52 141.547 178.053 138.465 178.053C135.383 178.053 132.884 180.52 132.884 183.562C132.884 186.605 135.383 189.071 138.465 189.071Z" fill="#CCCCCC"/>
<path d="M154.51 189.071C157.592 189.071 160.091 186.605 160.091 183.562C160.091 180.52 157.592 178.053 154.51 178.053C151.428 178.053 148.929 180.52 148.929 183.562C148.929 186.605 151.428 189.071 154.51 189.071Z" fill="#CCCCCC"/>
<path d="M266.607 448.5C264.686 448.491 262.797 448.01 261.112 447.099C259.427 446.188 257.999 444.876 256.957 443.283C255.914 441.69 255.291 439.866 255.143 437.975C254.995 436.084 255.328 434.187 256.11 432.454L269.405 403.172C258.934 394.029 250.555 382.791 244.824 370.204C239.093 357.618 236.141 343.971 236.166 330.171C236.166 276.259 280.599 232.396 335.215 232.396C389.832 232.396 434.264 276.259 434.264 330.171C434.264 384.084 389.831 427.947 335.215 427.947C325.661 427.937 316.159 426.556 307.008 423.845L273.075 446.522C271.169 447.806 268.915 448.495 266.607 448.5ZM335.215 246.039C317.539 246.029 300.298 251.447 285.881 261.543C271.464 271.639 260.586 285.912 254.755 302.384C248.924 318.856 248.428 336.711 253.337 353.473C258.246 370.236 268.316 385.075 282.151 395.935L286.34 399.233L272.034 430.742L304.863 408.803L308.104 409.878C319.815 413.761 332.24 415.085 344.52 413.757C356.8 412.428 368.64 408.48 379.22 402.186C389.8 395.891 398.868 387.401 405.793 377.303C412.719 367.205 417.338 355.742 419.329 343.707C421.321 331.672 420.637 319.354 417.326 307.606C414.015 295.857 408.156 284.96 400.155 275.67C392.154 266.379 382.201 258.917 370.988 253.8C359.775 248.684 347.568 246.036 335.215 246.039Z" fill="#3F3D56"/>
<path d="M335.215 339.267C342.848 339.267 349.036 333.159 349.036 325.624C349.036 318.089 342.848 311.981 335.215 311.981C327.582 311.981 321.394 318.089 321.394 325.624C321.394 333.159 327.582 339.267 335.215 339.267Z" fill="#3F3D56"/>
<path d="M296.056 339.267C303.689 339.267 309.877 333.159 309.877 325.624C309.877 318.089 303.689 311.981 296.056 311.981C288.423 311.981 282.235 318.089 282.235 325.624C282.235 333.159 288.423 339.267 296.056 339.267Z" fill="#3F3D56"/>
<path d="M374.374 339.267C382.007 339.267 388.195 333.159 388.195 325.624C388.195 318.089 382.007 311.981 374.374 311.981C366.741 311.981 360.553 318.089 360.553 325.624C360.553 333.159 366.741 339.267 374.374 339.267Z" fill="#3F3D56"/>
<path d="M682.765 271.625H551.423C549.84 271.625 548.321 271.004 547.201 269.899C546.082 268.794 545.453 267.295 545.453 265.732C545.453 264.169 546.082 262.67 547.201 261.564C548.321 260.459 549.84 259.838 551.423 259.838H682.765C684.349 259.838 685.867 260.459 686.987 261.564C688.106 262.67 688.735 264.169 688.735 265.732C688.735 267.295 688.106 268.794 686.987 269.899C685.867 271.004 684.349 271.625 682.765 271.625Z" fill="#CCCCCC"/>
<path d="M596.945 246.578H551.423C549.84 246.578 548.321 245.957 547.201 244.852C546.082 243.747 545.453 242.248 545.453 240.685C545.453 239.122 546.082 237.623 547.201 236.518C548.321 235.412 549.84 234.792 551.423 234.792H596.945C598.528 234.792 600.047 235.412 601.167 236.518C602.286 237.623 602.915 239.122 602.915 240.685C602.915 242.248 602.286 243.747 601.167 244.852C600.047 245.957 598.528 246.578 596.945 246.578Z" fill="#CCCCCC"/>
<path d="M491.933 278.806C505.947 278.806 517.306 267.592 517.306 253.759C517.306 239.926 505.947 228.713 491.933 228.713C477.92 228.713 466.56 239.926 466.56 253.759C466.56 267.592 477.92 278.806 491.933 278.806Z" fill="#FF5E57"/>
<path d="M695.931 215.453H459.365C456.002 215.457 452.778 216.778 450.4 219.126C448.022 221.473 446.683 224.656 446.679 227.976V279.543C446.683 282.863 448.022 286.045 450.4 288.393C452.778 290.74 456.002 292.061 459.365 292.066H695.931C699.294 292.061 702.518 290.74 704.896 288.393C707.274 286.045 708.612 282.863 708.617 279.543V227.976C708.612 224.656 707.274 221.473 704.896 219.126C702.518 216.778 699.294 215.457 695.931 215.453ZM707.124 279.543C707.121 282.472 705.94 285.281 703.842 287.352C701.743 289.424 698.898 290.589 695.931 290.593H459.365C456.397 290.589 453.552 289.424 451.454 287.352C449.355 285.281 448.175 282.472 448.171 279.543V227.976C448.175 225.046 449.355 222.238 451.454 220.166C453.552 218.095 456.397 216.93 459.365 216.926H695.931C698.898 216.93 701.743 218.095 703.842 220.166C705.94 222.238 707.121 225.046 707.124 227.976V279.543Z" fill="#3F3D56"/>
<path d="M707.124 236.079C716.604 236.079 724.288 228.494 724.288 219.136C724.288 209.778 716.604 202.193 707.124 202.193C697.645 202.193 689.96 209.778 689.96 219.136C689.96 228.494 697.645 236.079 707.124 236.079Z" fill="#FF5E57"/>
<path d="M706.597 228.665C706.527 228.597 706.472 228.515 706.435 228.426C706.397 228.336 706.378 228.241 706.378 228.144V209.391C706.378 209.196 706.457 209.009 706.597 208.871C706.737 208.733 706.927 208.655 707.124 208.655C707.322 208.655 707.512 208.733 707.652 208.871C707.792 209.009 707.871 209.196 707.871 209.391V228.144C707.871 228.29 707.827 228.432 707.745 228.553C707.663 228.674 707.546 228.769 707.41 228.824C707.274 228.88 707.124 228.895 706.979 228.866C706.834 228.838 706.701 228.768 706.597 228.665Z" fill="white"/>
<path d="M697.099 219.289C696.994 219.186 696.923 219.054 696.894 218.911C696.866 218.769 696.88 218.62 696.937 218.486C696.993 218.351 697.089 218.236 697.212 218.155C697.334 218.074 697.479 218.031 697.626 218.031H716.623C716.821 218.031 717.011 218.109 717.151 218.247C717.291 218.385 717.369 218.572 717.369 218.768C717.369 218.963 717.291 219.15 717.151 219.289C717.011 219.427 716.821 219.504 716.623 219.504H697.626C697.528 219.504 697.431 219.485 697.341 219.448C697.25 219.411 697.168 219.357 697.099 219.289Z" fill="white"/>
<path d="M727.672 444.34H691.844C691.844 445.356 654.919 446.181 654.919 446.181C654.339 446.612 653.811 447.106 653.344 447.655C651.942 449.306 651.175 451.393 651.18 453.548V455.021C651.181 457.463 652.164 459.805 653.913 461.532C655.662 463.258 658.034 464.229 660.508 464.23H727.672C730.145 464.227 732.516 463.257 734.265 461.53C736.014 459.804 736.998 457.463 737 455.021V453.548C736.997 451.107 736.013 448.767 734.264 447.04C732.515 445.314 730.145 444.343 727.672 444.34Z" fill="#3F3D56"/>
<path d="M699.31 463.864H689.609V525.744H699.31V463.864Z" fill="#3F3D56"/>
<path d="M726.922 525.407C726.922 526.442 712.221 525.807 694.086 525.807C675.952 525.807 661.251 526.442 661.251 525.407C661.251 524.373 675.952 516.167 694.086 516.167C712.221 516.167 726.922 524.373 726.922 525.407Z" fill="#3F3D56"/>
<path d="M697.572 361.415C709.112 361.415 718.467 352.18 718.467 340.788C718.467 329.396 709.112 320.161 697.572 320.161C686.032 320.161 676.677 329.396 676.677 340.788C676.677 352.18 686.032 361.415 697.572 361.415Z" fill="#2F2E41"/>
<path d="M645.572 517.268L636.423 517.268L632.07 482.432L645.574 482.433L645.572 517.268Z" fill="#FFB8B8"/>
<path d="M629.888 514.687H647.532V525.654H618.778C618.778 522.746 619.949 519.956 622.032 517.899C624.116 515.843 626.941 514.687 629.888 514.687Z" fill="#2F2E41"/>
<path d="M631.29 512.227L622.561 509.523L628.973 474.999L641.857 478.991L631.29 512.227Z" fill="#FFB8B8"/>
<path d="M617.108 505.13L633.943 510.345L630.617 520.809L603.182 512.31C604.064 509.535 606.027 507.219 608.639 505.873C611.251 504.526 614.297 504.259 617.108 505.13Z" fill="#2F2E41"/>
<path d="M703.169 438.301C702.958 436.546 702.578 434.814 702.035 433.13L700.326 431.008L695.878 425.498L695.684 425.505C695.356 425.52 693.99 425.593 691.878 425.755H691.856C690.55 425.859 688.953 425.991 687.139 426.161C686.662 426.212 686.162 426.256 685.647 426.308V433.999H694.975C695.429 433.999 695.866 434.163 696.207 434.458C696.547 434.753 696.767 435.161 696.826 435.605C696.833 435.686 696.841 435.759 696.841 435.84C696.841 436.329 696.644 436.797 696.294 437.143C695.944 437.488 695.47 437.682 694.975 437.682H640.796C640.106 438.135 639.443 438.626 638.811 439.155C636.903 440.614 635.527 442.647 634.893 444.946C631.729 458.677 625.961 484.284 624.259 491.805C624.136 492.372 624.164 492.96 624.34 493.513C624.517 494.066 624.836 494.564 625.267 494.958C625.584 495.25 625.957 495.478 626.364 495.628L633.095 498.118C633.372 498.219 633.66 498.286 633.953 498.317C633.99 498.317 634.02 498.324 634.058 498.324C634.127 498.331 634.197 498.333 634.267 498.332C634.947 498.329 635.611 498.124 636.172 497.743C636.732 497.362 637.163 496.822 637.408 496.195L642.722 482.435L650.909 461.219L654.147 452.828C657.901 453.697 689.393 460.578 699.938 449.491C700.978 448.399 701.799 447.121 702.356 445.727C703.243 443.355 703.523 440.804 703.169 438.301Z" fill="#2F2E41"/>
<path d="M712.303 440.305C712.139 439.649 711.953 438.971 711.736 438.286L705.579 430.654L705.386 430.662C704.997 430.684 703.154 430.78 700.326 431.008C697.117 431.273 692.632 431.7 687.594 432.371C687.445 432.386 687.289 432.408 687.139 432.43C686.647 432.496 686.147 432.562 685.647 432.636V433.999H694.975C695.428 433.999 695.866 434.163 696.207 434.458C696.547 434.754 696.767 435.161 696.826 435.605C696.833 435.686 696.841 435.759 696.841 435.84C696.841 436.329 696.644 436.797 696.294 437.143C695.944 437.488 695.47 437.682 694.975 437.682H662.005C660.565 438.146 659.177 438.632 657.849 439.155C650.879 441.881 645.662 445.454 644.595 450.102C644.237 451.664 643.841 453.38 643.423 455.207C641.871 461.999 639.983 470.316 638.274 477.875V477.882C637.923 479.444 637.573 480.961 637.237 482.435C635.811 488.77 634.603 494.14 633.96 496.962C633.946 497.043 633.931 497.116 633.916 497.197V497.212C633.841 497.783 633.913 498.363 634.125 498.899L634.132 498.906V498.914C634.337 499.427 634.671 499.881 635.102 500.232C635.391 500.467 635.716 500.654 636.065 500.785L642.796 503.275C643.171 503.413 643.568 503.486 643.968 503.488C644.529 503.49 645.081 503.35 645.572 503.083C646.278 502.706 646.823 502.092 647.11 501.352L661.602 463.812L663.849 457.985C667.602 458.854 699.094 465.727 709.639 454.647C711.722 452.422 712.911 449.522 712.982 446.493C713.056 444.409 712.827 442.325 712.303 440.305Z" fill="#2F2E41"/>
<path d="M711.475 375.316C711.356 375.176 711.229 375.036 711.094 374.903C709.107 372.841 706.652 371.272 703.932 370.326C701.212 369.38 698.304 369.083 695.445 369.46C692.951 369.783 690.481 370.263 688.049 370.896C684.909 371.693 682.033 373.285 679.707 375.515C677.894 377.25 676.467 379.337 675.515 381.645C674.563 383.953 674.107 386.431 674.177 388.922C674.206 389.931 674.214 390.963 674.199 392.009C674.199 392.495 674.192 392.989 674.184 393.482H681.542C681.862 393.481 682.18 393.518 682.49 393.593C683.388 393.805 684.188 394.308 684.76 395.023C685.333 395.738 685.645 396.622 685.647 397.534V431.804C686.147 431.943 686.647 432.083 687.139 432.231C687.296 432.282 687.445 432.327 687.594 432.371C687.766 432.422 687.938 432.474 688.102 432.525C689.617 432.989 691.097 433.481 692.542 433.999H694.975C695.428 433.999 695.866 434.163 696.207 434.458C696.547 434.753 696.767 435.161 696.826 435.605C697.333 435.804 697.826 436.002 698.311 436.201C700.035 436.909 701.669 437.616 703.169 438.301C705.191 439.214 706.99 440.084 708.497 440.842C708.971 441.081 709.495 441.207 710.027 441.211C710.726 441.208 711.405 440.987 711.968 440.577C712.084 440.492 712.196 440.401 712.303 440.305C712.703 439.935 713.004 439.475 713.183 438.964C713.361 438.453 713.41 437.907 713.326 437.373C712.555 431.586 712.33 425.741 712.654 419.914C712.863 415.015 713.311 409.991 713.893 405.136C714.206 402.506 714.557 399.928 714.923 397.445C715.274 395.073 715.647 392.797 716.012 390.646C716.492 387.918 716.333 385.118 715.546 382.461C714.759 379.804 713.367 377.36 711.475 375.316Z" fill="#FF5E57"/>
<path d="M680.886 375.92C680.503 375.758 680.109 375.622 679.707 375.515C677.718 374.986 675.603 375.181 673.748 376.064C671.893 376.948 670.421 378.46 669.602 380.325L664.475 392.009L663.834 393.482H681.543C681.862 393.481 682.18 393.518 682.49 393.593L683.087 392.23L685.356 387.058C686.257 384.996 686.292 382.665 685.454 380.577C684.616 378.489 682.973 376.814 680.886 375.92Z" fill="#FF5E57"/>
<path d="M696.808 363.707C706.931 363.707 715.137 355.607 715.137 345.614C715.137 335.621 706.931 327.521 696.808 327.521C686.685 327.521 678.479 335.621 678.479 345.614C678.479 355.607 686.685 363.707 696.808 363.707Z" fill="#FFB8B8"/>
<path d="M678.149 336.725C686.831 341.956 696.619 345.14 706.75 346.027L703.736 342.462C705.931 343.263 708.241 343.716 710.579 343.803C712.915 343.767 715.363 342.879 716.689 340.98C717.28 340.036 717.631 338.965 717.712 337.858C717.794 336.751 717.603 335.641 717.155 334.623C716.236 332.592 714.806 330.827 713.001 329.496C709.802 326.997 706.025 325.319 702.009 324.61C697.993 323.902 693.862 324.185 689.983 325.435C687.323 326.22 684.94 327.729 683.108 329.788C681.371 331.904 678.026 333.79 678.915 336.368L678.149 336.725Z" fill="#2F2E41"/>
<path d="M699.89 322.123C694.109 316.336 687.113 311.871 679.395 309.041C674.441 307.229 669.049 306.109 663.869 307.138C658.69 308.167 653.791 311.704 652.346 316.721C651.165 320.823 652.385 325.239 654.219 329.101C656.052 332.962 658.5 336.543 659.983 340.548C661.496 344.635 661.951 349.031 661.307 353.335C660.663 357.64 658.94 361.718 656.294 365.198C653.648 368.679 650.164 371.452 646.157 373.266C642.15 375.08 637.748 375.877 633.35 375.586C638.439 376.26 643.13 378.62 648.104 379.877C653.078 381.133 658.949 381.048 662.646 377.53C666.557 373.809 666.635 367.757 666.446 362.398C666.165 354.431 665.884 346.463 665.603 338.496C665.46 334.433 665.337 330.24 666.822 326.448C668.306 322.656 671.834 319.335 675.952 319.369C679.073 319.396 681.836 321.262 684.339 323.103C686.842 324.944 689.491 326.907 692.6 327.181C695.709 327.455 699.259 325.184 699.027 322.111L699.89 322.123Z" fill="#2F2E41"/>
<path d="M714.923 397.445L704.46 397.725L703.699 404.982L703.527 406.661L687.139 413.925L685.647 414.588V427.501L687.139 427.082L691.856 425.756H691.878L712.654 419.914L712.893 419.847C714.572 419.369 716.049 418.369 717.106 416.995C718.163 415.621 718.742 413.948 718.759 412.223L718.811 403.656L718.856 397.342L714.923 397.445Z" fill="#FFB8B8"/>
<path d="M718.326 383.095C718.186 380.852 717.15 378.756 715.445 377.267C713.739 375.779 711.505 375.02 709.233 375.158C706.96 375.295 704.837 376.318 703.329 378.002C701.821 379.685 701.052 381.891 701.192 384.134L702.333 402.521C702.364 403.005 702.502 403.476 702.739 403.901C702.975 404.327 703.302 404.695 703.699 404.982C704.33 405.446 705.108 405.673 705.893 405.622L713.893 405.136L716.318 404.989C716.76 404.967 717.193 404.858 717.59 404.667C717.988 404.475 718.342 404.207 718.632 403.877C718.696 403.807 718.756 403.733 718.811 403.656C719.285 403.029 719.518 402.256 719.467 401.475L718.326 383.095Z" fill="#FF5E57"/>
<path d="M688.102 432.525H687.139V432.43C686.647 432.496 686.147 432.562 685.647 432.636V433.999H692.542C691.094 433.483 689.614 432.992 688.102 432.525ZM688.102 432.525H687.139V432.43C686.647 432.496 686.147 432.562 685.647 432.636V433.999H692.542C691.094 433.483 689.614 432.992 688.102 432.525ZM694.975 432.525H687.139V397.534C687.137 396.336 686.74 395.171 686.01 394.215C685.279 393.258 684.253 392.562 683.087 392.23C682.586 392.081 682.066 392.006 681.543 392.009H615.125C613.641 392.011 612.219 392.593 611.169 393.629C610.12 394.665 609.53 396.069 609.528 397.534V433.63C609.529 435.096 610.118 436.501 611.168 437.537C612.218 438.573 613.641 439.155 615.125 439.155H694.975C695.802 439.154 696.599 438.852 697.214 438.307C697.83 437.762 698.22 437.013 698.311 436.201C698.326 436.082 698.334 435.961 698.333 435.84C698.332 434.962 697.978 434.119 697.348 433.498C696.719 432.876 695.865 432.527 694.975 432.525ZM696.841 435.84C696.841 436.329 696.644 436.797 696.294 437.143C695.944 437.488 695.47 437.682 694.975 437.682H615.125C614.037 437.682 612.993 437.254 612.223 436.495C611.454 435.735 611.021 434.705 611.021 433.63V397.534C611.021 396.459 611.454 395.429 612.223 394.67C612.993 393.91 614.037 393.483 615.125 393.482H681.543C681.862 393.481 682.18 393.518 682.49 393.593C683.388 393.805 684.188 394.308 684.76 395.023C685.333 395.738 685.645 396.623 685.647 397.534V433.999H694.975C695.429 433.999 695.866 434.163 696.207 434.458C696.547 434.754 696.767 435.161 696.826 435.605C696.833 435.686 696.841 435.759 696.841 435.84ZM688.102 432.525H687.139V432.43C686.647 432.496 686.147 432.562 685.647 432.636V433.999H692.542C691.094 433.483 689.614 432.992 688.102 432.525Z" fill="#3F3D56"/>
<path d="M648.331 420.003C650.804 420.003 652.809 418.024 652.809 415.583C652.809 413.142 650.804 411.163 648.331 411.163C645.859 411.163 643.854 413.142 643.854 415.583C643.854 418.024 645.859 420.003 648.331 420.003Z" fill="#FF5E57"/>
<path d="M248.396 52.5744C248.38 52.9109 248.39 53.2483 248.427 53.5832L224.993 72.9973L218.005 70.4996L212.808 80.4179L228.086 87.597L253.705 59.2179C254.999 59.4495 256.334 59.2869 257.531 58.7517C258.729 58.2165 259.733 57.334 260.411 56.2216C261.088 55.1092 261.406 53.8196 261.323 52.5244C261.24 51.2291 260.759 49.9896 259.945 48.9706C259.13 47.9516 258.021 47.2015 256.764 46.82C255.508 46.4385 254.163 46.4437 252.91 46.8349C251.656 47.2261 250.553 47.9848 249.746 49.01C248.94 50.0353 248.469 51.2785 248.396 52.5743L248.396 52.5744Z" fill="#FFB8B8"/>
<path d="M216.967 85.1753L194.338 77.1122C192.26 76.372 190.566 74.8474 189.627 72.8739C188.688 70.9003 188.582 68.6395 189.332 66.5887C190.082 64.5379 191.626 62.8651 193.625 61.9384C195.625 61.0117 197.915 60.907 199.993 61.6472L222.622 69.7102C222.965 69.8324 223.28 70.02 223.549 70.2624C223.819 70.5047 224.037 70.7971 224.192 71.1228C224.347 71.4485 224.436 71.8012 224.452 72.1606C224.469 72.5201 224.414 72.8793 224.29 73.2177L220.521 83.5281C220.27 84.2111 219.755 84.768 219.089 85.0768C218.423 85.3856 217.66 85.421 216.967 85.1753V85.1753Z" fill="#CCCCCC"/>
<path d="M200.394 163.725L207.957 163.725L211.554 134.928L200.393 134.929L200.394 163.725Z" fill="#FFB8B8"/>
<path d="M222.543 170.657L198.773 170.658L198.773 161.592L213.359 161.592C215.794 161.592 218.13 162.547 219.852 164.247C221.575 165.947 222.542 168.252 222.543 170.657L222.543 170.657Z" fill="#2F2E41"/>
<path d="M181.703 154.081L187.89 158.375L207.612 136.862L198.481 130.525L181.703 154.081Z" fill="#FFB8B8"/>
<path d="M195.036 170.854L175.592 157.359L180.874 149.943L192.806 158.224C194.798 159.607 196.152 161.714 196.571 164.083C196.989 166.452 196.437 168.887 195.036 170.854L195.036 170.854Z" fill="#2F2E41"/>
<path d="M216.943 111.853C216.943 111.853 235.816 109.654 232.429 121.744C229.041 133.834 191.294 144.275 191.294 144.275L216.943 111.853Z" fill="#FFB8B8"/>
<path d="M203.952 50.1645C212.32 50.1645 219.104 43.4683 219.104 35.2081C219.104 26.9478 212.32 20.2516 203.952 20.2516C195.584 20.2516 188.801 26.9478 188.801 35.2081C188.801 43.4683 195.584 50.1645 203.952 50.1645Z" fill="#FFB8B8"/>
<path d="M155.634 141.799C147.012 131.89 143.995 116.681 157.744 104.031C161.14 100.984 164.984 98.4637 169.147 96.5563L180.228 65.966C181.379 62.7716 183.489 59.9996 186.277 58.0198C189.066 56.04 192.399 54.9465 195.833 54.8853C199.167 54.7432 202.464 55.6236 205.271 57.4056C208.078 59.1875 210.257 61.7836 211.51 64.8373C212.863 67.9439 213.018 71.432 211.945 74.6435C208.646 84.7839 204.314 94.5678 199.016 103.845L199.589 108.37L227.597 110.827L227.336 111.247C227.2 111.465 213.492 132.082 195.956 145.767C189.96 150.446 183.759 152.385 177.907 152.385C169.034 152.384 160.963 147.925 155.634 141.799Z" fill="#CCCCCC"/>
<path d="M152.99 39.9003C155.671 36.7472 156.82 32.6231 157.745 28.6094C159.209 22.2587 160.341 15.692 163.592 10.0247C166.843 4.35754 172.818 -0.338291 179.406 0.0191468C185.956 0.374544 191.252 5.57665 194.063 11.4956C194.744 11.2346 195.472 11.1177 196.202 11.1524C196.931 11.1872 197.645 11.3727 198.297 11.6971C200.323 12.7923 201.081 15.9051 199.394 17.4635C201.168 16.6298 203.099 16.1739 205.063 16.1256C207.027 16.0773 208.979 16.4375 210.793 17.183C213.125 18.163 215.138 19.759 216.61 21.7954C218.083 23.8318 218.958 26.2297 219.139 28.7252C219.209 29.7381 219.068 30.7545 218.725 31.7114C218.381 32.6684 217.842 33.5455 217.141 34.2884C214.234 37.2426 210.123 36.2236 206.467 35.471C203.014 34.7602 198.808 34.5683 196.863 37.8161C196.096 39.1694 195.881 40.7605 196.263 42.2646C197.008 45.5067 199.44 47.765 201.799 49.9263L202.185 50.6339C193.855 52.2373 184.759 46.6219 182.574 38.5271C180.389 30.4324 185.448 21.0939 193.482 18.3935C192.947 18.41 192.418 18.2852 191.948 18.0321C191.479 17.779 191.086 17.4067 190.812 16.9538C190.537 16.5008 190.389 15.9837 190.384 15.4556C190.38 14.9276 190.518 14.408 190.785 13.9503C188.561 12.7206 186.045 12.1008 183.496 12.1553C179.347 12.424 175.756 15.3398 173.596 18.8478C171.437 22.3559 170.459 26.4277 169.468 30.4146C168.478 34.4014 167.406 38.4645 165.097 41.8785C163.497 44.2432 161.36 46.206 158.856 47.6106C156.352 49.0151 153.55 49.8224 150.673 49.968C147.797 50.1137 144.926 49.5936 142.289 48.4494C139.652 47.3052 137.323 45.5685 135.487 43.3778C138.388 44.7666 141.671 45.1785 144.832 44.5505C147.993 43.9224 150.859 42.289 152.99 39.9003Z" fill="#2F2E41"/>
<path d="M264.273 80.6602C276.436 80.6602 286.297 70.9267 286.297 58.9199C286.297 46.913 276.436 37.1795 264.273 37.1795C252.11 37.1795 242.25 46.913 242.25 58.9199C242.25 70.9267 252.11 80.6602 264.273 80.6602Z" fill="#FF5E57"/>
<path d="M263.596 71.1465C263.507 71.0588 263.436 70.9546 263.388 70.8399C263.34 70.7252 263.315 70.6023 263.316 70.4781V46.4164C263.316 46.1657 263.417 45.9253 263.596 45.7481C263.776 45.5708 264.019 45.4712 264.273 45.4712C264.527 45.4712 264.771 45.5708 264.95 45.7481C265.13 45.9253 265.231 46.1657 265.231 46.4164V70.4781C265.231 70.665 265.174 70.8478 265.069 71.0032C264.964 71.1586 264.814 71.2797 264.64 71.3513C264.465 71.4228 264.272 71.4416 264.086 71.4051C263.901 71.3687 263.73 71.2787 263.596 71.1465H263.596Z" fill="white"/>
<path d="M251.408 59.1156C251.275 58.9834 251.183 58.815 251.146 58.6317C251.11 58.4483 251.128 58.2583 251.201 58.0856C251.273 57.9129 251.396 57.7653 251.554 57.6615C251.711 57.5576 251.896 57.5021 252.086 57.5021H276.461C276.715 57.5021 276.958 57.6017 277.138 57.779C277.317 57.9562 277.418 58.1966 277.418 58.4473C277.418 58.6979 277.317 58.9383 277.138 59.1156C276.958 59.2928 276.715 59.3924 276.461 59.3924H252.086C251.96 59.3926 251.835 59.3683 251.719 59.3208C251.603 59.2733 251.497 59.2036 251.408 59.1156Z" fill="white"/>
<path d="M249.156 73.4613C248.996 73.759 248.86 74.0686 248.749 74.3874L219.178 82.1283L213.928 76.9353L204.953 83.7326L215.692 96.6414L251.101 81.7023C252.172 82.4548 253.45 82.8675 254.764 82.8856C256.079 82.9036 257.368 82.5262 258.46 81.8035C259.552 81.0807 260.395 80.0469 260.878 78.8396C261.36 77.6322 261.459 76.3085 261.16 75.0445C260.862 73.7805 260.181 72.6361 259.208 71.7635C258.234 70.8909 257.015 70.3315 255.712 70.1596C254.409 69.9878 253.084 70.2116 251.912 70.8014C250.741 71.3911 249.78 72.3189 249.156 73.4613L249.156 73.4613Z" fill="#FFB8B8"/>
<path d="M206.669 89.7841L189.658 72.9909C188.882 72.228 188.267 71.3216 187.846 70.3237C187.426 69.3257 187.209 68.2558 187.208 67.175C187.207 66.0943 187.422 65.0239 187.841 64.0253C188.259 63.0266 188.873 62.1192 189.648 61.355C190.422 60.5908 191.341 59.9848 192.353 59.5716C193.364 59.1585 194.449 58.9463 195.543 58.9472C196.638 58.9481 197.722 59.1621 198.733 59.577C199.744 59.9919 200.662 60.5994 201.435 61.365L218.447 78.1581C218.705 78.4125 218.909 78.7146 219.049 79.047C219.188 79.3794 219.26 79.7357 219.26 80.0956C219.26 80.4554 219.188 80.8117 219.049 81.1441C218.909 81.4766 218.705 81.7786 218.447 82.033L210.595 89.7841C210.074 90.2971 209.368 90.5851 208.632 90.5851C207.896 90.5851 207.191 90.2971 206.669 89.7841V89.7841Z" fill="#CCCCCC"/>
</g>
<defs>
<clipPath id="clip0">
<rect width="737" height="526" fill="white"/>
</clipPath>
</defs>
</svg>
