<svg width="345" height="344" viewBox="0 0 345 344" fill="none" xmlns="http://www.w3.org/2000/svg">
<g opacity="0.5">
<path opacity="0.5" d="M172.5 344C267.769 344 345 266.993 345 172C345 77.007 267.769 0 172.5 0C77.2309 0 0 77.007 0 172C0 266.993 77.2309 344 172.5 344Z" fill="url(#paint0_linear)"/>
</g>
<path d="M172.836 339.274C266.096 339.274 341.698 263.891 341.698 170.901C341.698 77.9113 266.096 2.52826 172.836 2.52826C79.576 2.52826 3.97388 77.9113 3.97388 170.901C3.97388 263.891 79.576 339.274 172.836 339.274Z" fill="#F5F5F5"/>
<path d="M172.994 339.939C205.99 339.993 238.271 330.36 265.813 312.242C259.59 278.334 235.91 276.403 235.91 276.403H105.324C105.324 276.403 82.978 278.231 75.9989 309.423C104.394 329.338 138.278 339.999 172.994 339.939Z" fill="#FF5E57"/>
<path d="M171.2 248.621C216.214 248.621 252.705 212.236 252.705 167.353C252.705 122.469 216.214 86.0838 171.2 86.0838C126.186 86.0838 89.6951 122.469 89.6951 167.353C89.6951 212.236 126.186 248.621 171.2 248.621Z" fill="#333333"/>
<path opacity="0.1" d="M144.895 235.044H197.119V276.703C197.119 283.607 194.37 290.228 189.475 295.11C184.58 299.993 177.941 302.737 171.017 302.74C164.092 302.74 157.45 299.997 152.553 295.114C147.656 290.231 144.905 283.608 144.905 276.703V235.044H144.895Z" fill="black"/>
<path d="M146.551 233.112H195.484C195.923 233.112 196.344 233.286 196.654 233.595C196.965 233.905 197.139 234.325 197.139 234.763V274.771C197.14 278.192 196.465 281.579 195.152 284.739C193.84 287.899 191.915 290.77 189.49 293.189C187.064 295.607 184.184 297.525 181.014 298.833C177.845 300.141 174.448 300.814 171.017 300.813C164.092 300.813 157.45 298.07 152.553 293.187C147.656 288.304 144.905 281.681 144.905 274.776V234.763C144.905 234.327 145.078 233.908 145.386 233.599C145.695 233.289 146.114 233.114 146.551 233.112Z" fill="#FDB797"/>
<path opacity="0.1" d="M144.989 254.708C161.82 260.978 180.348 261.029 197.214 254.851V248.444H144.989V254.708Z" fill="black"/>
<path d="M171.2 258.192C212.543 258.192 246.057 224.775 246.057 183.552C246.057 142.33 212.543 108.912 171.2 108.912C129.858 108.912 96.343 142.33 96.343 183.552C96.343 224.775 129.858 258.192 171.2 258.192Z" fill="#FDB797"/>
<path opacity="0.1" d="M117.878 115.659C117.878 115.659 149.427 179.511 238.421 142.43L217.701 110.036L180.972 96.8917L117.878 115.659Z" fill="black"/>
<path d="M117.878 114.723C117.878 114.723 149.427 178.574 238.421 141.484L217.701 109.089L180.972 95.9454L117.878 114.723Z" fill="#333333"/>
<path d="M117.602 110.395C119.729 103.829 123.405 97.8684 128.322 93.0131C143.047 78.499 167.187 75.4385 179.568 58.8891C182.534 63.4823 180.24 70.5447 175.12 72.516C186.982 72.4371 200.728 71.4022 207.435 61.6736C209.093 65.5213 209.621 69.7591 208.959 73.8944C208.296 78.0296 206.47 81.8925 203.693 85.0341C214.206 85.5269 225.441 92.6237 226.104 103.097C226.558 110.075 222.149 116.679 216.421 120.681C210.692 124.683 203.713 126.521 196.868 128.024C176.879 132.425 104.558 150.843 117.602 110.395Z" fill="#333333"/>
<path d="M96.3134 196.504C100.16 196.504 103.278 190.674 103.278 183.483C103.278 176.292 100.16 170.462 96.3134 170.462C92.4671 170.462 89.3491 176.292 89.3491 183.483C89.3491 190.674 92.4671 196.504 96.3134 196.504Z" fill="#FDB797"/>
<path d="M246.047 196.504C249.894 196.504 253.012 190.674 253.012 183.483C253.012 176.292 249.894 170.462 246.047 170.462C242.201 170.462 239.083 176.292 239.083 183.483C239.083 190.674 242.201 196.504 246.047 196.504Z" fill="#FDB797"/>
<defs>
<linearGradient id="paint0_linear" x1="172.5" y1="344" x2="172.5" y2="0" gradientUnits="userSpaceOnUse">
<stop stop-color="#808080" stop-opacity="0.25"/>
<stop offset="0.54" stop-color="#808080" stop-opacity="0.12"/>
<stop offset="1" stop-color="#808080" stop-opacity="0.1"/>
</linearGradient>
</defs>
</svg>
