<svg width="776" height="508" viewBox="0 0 776 508" fill="none" xmlns="http://www.w3.org/2000/svg">
<g clip-path="url(#clip0)">
<path d="M641.406 508C553.265 508 481.812 503.053 481.812 496.951C481.812 490.849 553.265 485.902 641.406 485.902C729.547 485.902 801 490.849 801 496.951C801 503.053 729.547 508 641.406 508Z" fill="#E6E6E6"/>
<path d="M679.009 112.716C651.235 101.948 616.642 108.771 582.858 113.506C582.544 107.772 578.733 100.793 582.725 96.7919C587.574 91.9315 587.128 86.8247 584.21 81.6884C576.747 68.554 587.439 54.5784 598.234 42.9578C600.667 40.3445 603.742 38.2912 607.209 36.9646C610.677 35.6381 614.438 35.0757 618.189 35.3233L638.186 36.6253C643.052 36.9421 647.696 38.606 651.496 41.3944C655.297 44.1828 658.072 47.9627 659.451 52.2282C664.226 58.1478 666.782 64.051 665.173 69.9235C672.325 74.3788 673.526 79.7567 670.313 85.8195C667.587 89.6368 667.616 93.3526 670.437 96.9655C674.14 101.572 676.977 106.708 678.831 112.163L679.009 112.716Z" fill="#2F2E41"/>
<path d="M18.9806 439.158H585.052C590.086 439.158 594.914 437.335 598.473 434.09C602.033 430.846 604.033 426.445 604.033 421.856C398.832 400.117 197.488 400.117 -0.00012207 421.856C-0.00012207 426.445 1.99963 430.846 5.5592 434.09C9.11877 437.335 13.9466 439.158 18.9806 439.158Z" fill="#2F2E41"/>
<path d="M-0.00012207 422.874L604.033 421.856L534.027 314.484L533.692 313.975V77.3385C533.693 74.4663 533.072 71.6221 531.867 68.9684C530.661 66.3148 528.894 63.9036 526.665 61.8726C524.437 59.8416 521.792 58.2306 518.881 57.1315C515.97 56.0325 512.85 55.4669 509.699 55.4672H97.6835C94.5325 55.4669 91.4124 56.0325 88.5012 57.1315C85.59 58.2306 82.9448 59.8416 80.7168 61.8726C78.4887 63.9036 76.7213 66.3148 75.5156 68.9684C74.3099 71.6221 73.6894 74.4663 73.6897 77.3385V315.603L-0.00012207 422.874Z" fill="#3F3D56"/>
<path d="M510.246 70.7334C512.318 70.7355 514.305 71.4868 515.77 72.8224C517.235 74.158 518.059 75.9688 518.062 77.8576V293.62C518.059 295.509 517.235 297.32 515.77 298.655C514.305 299.991 512.318 300.742 510.246 300.744H93.787C91.715 300.742 89.7285 299.991 88.2634 298.655C86.7982 297.319 85.9739 295.509 85.9714 293.62V77.8576C85.9738 75.9688 86.7981 74.1581 88.2632 72.8225C89.7284 71.4869 91.715 70.7356 93.787 70.7334H510.246Z" fill="white"/>
<path d="M508.501 329.241C509.141 329.242 509.768 329.41 510.307 329.725C510.846 330.04 511.275 330.489 511.544 331.018L533.115 373.764C533.35 374.229 533.452 374.74 533.413 375.251C533.375 375.762 533.195 376.256 532.892 376.687C532.589 377.118 532.172 377.473 531.679 377.719C531.187 377.964 530.634 378.093 530.072 378.093H76.4495C75.8785 378.093 75.3171 377.96 74.8184 377.707C74.3197 377.453 73.9004 377.088 73.6003 376.645C73.3002 376.202 73.1293 375.697 73.1037 375.177C73.0782 374.657 73.1989 374.14 73.4543 373.674L96.9011 330.929C97.1777 330.421 97.6048 329.993 98.1342 329.695C98.6635 329.397 99.2739 329.24 99.8962 329.241H508.501Z" fill="#2F2E41"/>
<path d="M303.691 67.1713C300.916 67.1713 298.667 65.1208 298.667 62.5914C298.667 60.0621 300.916 58.0116 303.691 58.0116C306.466 58.0116 308.715 60.0621 308.715 62.5914C308.715 65.1208 306.466 67.1713 303.691 67.1713Z" fill="white"/>
<path d="M348.278 386.235C349.015 386.236 349.73 386.457 350.315 386.866C350.899 387.274 351.32 387.846 351.512 388.494L356.923 406.814C357.057 407.266 357.075 407.741 356.975 408.2C356.875 408.66 356.661 409.093 356.348 409.465C356.035 409.837 355.633 410.138 355.172 410.346C354.711 410.553 354.203 410.661 353.689 410.661H250.787C250.253 410.661 249.727 410.545 249.253 410.321C248.778 410.098 248.369 409.775 248.059 409.379C247.75 408.982 247.548 408.524 247.473 408.042C247.397 407.56 247.448 407.069 247.623 406.609L254.58 388.289C254.808 387.69 255.235 387.17 255.802 386.801C256.37 386.433 257.049 386.235 257.745 386.235H348.278Z" fill="#2F2E41"/>
<path d="M73.6899 310.413V314.484H534.028L533.681 313.975V310.413H73.6899Z" fill="#2F2E41"/>
<path d="M86.5297 142.485C43.3655 142.485 8.37396 110.588 8.37396 71.2423C8.37396 31.8963 43.3655 0 86.5297 0C129.694 0 164.686 31.8963 164.686 71.2423C164.686 110.588 129.694 142.485 86.5297 142.485Z" fill="#FF5E57"/>
<path d="M54.1507 102.284H118.908C120.093 102.283 121.228 101.853 122.065 101.09C122.902 100.327 123.373 99.292 123.375 98.2127V62.5915C123.373 61.5121 122.902 60.4773 122.065 59.7141C121.228 58.9509 120.093 58.5217 118.908 58.5205H54.1507C52.9667 58.5217 51.8314 58.9509 50.9942 59.7141C50.1569 60.4773 49.686 61.5121 49.6847 62.5915V98.2126C49.6859 99.292 50.1568 100.327 50.9941 101.09C51.8314 101.853 52.9666 102.283 54.1507 102.284ZM118.908 62.5915V98.2127H54.1475L54.1507 62.5915L118.908 62.5915Z" fill="white"/>
<path d="M66.4325 62.5914H106.627V46.3075C106.627 34.5129 98.1746 25.9525 86.5298 25.9525C74.8849 25.9525 66.4326 34.5129 66.4326 46.3075L66.4325 62.5914ZM102.161 58.5204H70.8985V46.3075C70.8985 36.7198 77.3262 30.0235 86.5297 30.0235C95.7332 30.0235 102.161 36.7199 102.161 46.3075L102.161 58.5204Z" fill="white"/>
<path d="M86.5295 83.4552C84.063 83.4552 82.0635 81.6326 82.0635 79.3842C82.0635 77.1359 84.063 75.3132 86.5295 75.3132C88.9961 75.3132 90.9956 77.1359 90.9956 79.3842C90.9956 81.6326 88.9961 83.4552 86.5295 83.4552Z" fill="white"/>
<path d="M141.089 227.56H462.944C464.524 227.558 466.039 226.985 467.156 225.967C468.273 224.948 468.902 223.567 468.904 222.127V149.351C468.902 147.91 468.273 146.529 467.156 145.511C466.039 144.492 464.524 143.919 462.944 143.918H141.089C139.509 143.919 137.994 144.492 136.877 145.511C135.759 146.529 135.131 147.91 135.129 149.351V222.127C135.131 223.567 135.759 224.948 136.877 225.967C137.994 226.985 139.509 227.558 141.089 227.56ZM462.944 146.091C463.892 146.092 464.801 146.436 465.471 147.047C466.142 147.658 466.519 148.487 466.52 149.351V222.127C466.519 222.991 466.142 223.82 465.471 224.431C464.801 225.042 463.892 225.386 462.944 225.387H141.089C140.141 225.386 139.232 225.042 138.562 224.431C137.891 223.82 137.514 222.991 137.513 222.127V149.351C137.514 148.486 137.891 147.658 138.562 147.047C139.232 146.436 140.141 146.092 141.089 146.091L462.944 146.091Z" fill="#E6E6E6"/>
<path d="M412.934 205.078C399.525 205.078 388.655 195.169 388.655 182.946C388.655 170.724 399.525 160.815 412.934 160.815C426.343 160.815 437.213 170.724 437.213 182.946C437.213 195.169 426.343 205.078 412.934 205.078Z" fill="#E6E6E6"/>
<path d="M356.861 168.192C357.393 168.191 357.92 168.286 358.412 168.471C358.903 168.656 359.35 168.928 359.727 169.271C360.103 169.613 360.402 170.02 360.605 170.468C360.809 170.916 360.914 171.396 360.914 171.881C360.914 172.366 360.809 172.846 360.605 173.294C360.402 173.742 360.103 174.148 359.727 174.491C359.35 174.834 358.903 175.105 358.412 175.29C357.92 175.475 357.393 175.57 356.861 175.569H166.098C165.025 175.569 163.996 175.181 163.237 174.489C162.478 173.797 162.052 172.859 162.052 171.881C162.052 170.903 162.478 169.964 163.237 169.273C163.996 168.581 165.025 168.192 166.098 168.192H356.861Z" fill="#E6E6E6"/>
<path d="M356.861 190.323C357.934 190.323 358.964 190.712 359.723 191.404C360.481 192.096 360.908 193.034 360.908 194.012C360.908 194.99 360.481 195.928 359.723 196.62C358.964 197.312 357.934 197.701 356.861 197.701H274.775C273.702 197.701 272.673 197.312 271.914 196.62C271.155 195.928 270.729 194.99 270.729 194.012C270.729 193.034 271.155 192.096 271.914 191.404C272.673 190.712 273.702 190.323 274.775 190.323H356.861Z" fill="#E6E6E6"/>
<path d="M534.82 191.816L594.317 220.649L595.07 196.621C575.651 193.666 557.175 188.521 540.092 180.145L533.869 166.131C533.191 164.604 532.089 163.264 530.671 162.243C529.253 161.221 527.568 160.553 525.782 160.305C523.995 160.056 522.169 160.235 520.481 160.824C518.793 161.414 517.303 162.393 516.156 163.666C514.477 165.528 513.638 167.902 513.809 170.308C513.979 172.713 515.146 174.969 517.073 176.619L534.82 191.816Z" fill="#FFB8B8"/>
<path d="M680.195 358.289C680.629 356.838 680.721 355.32 680.466 353.834C680.21 352.348 679.612 350.928 678.711 349.668L665.641 331.385C662.55 327.06 657.807 323.936 652.331 322.62C646.856 321.303 641.04 321.887 636.01 324.259C641.503 332.782 640.737 340.258 634.113 346.756C644.397 351.332 653.901 357.238 662.331 364.291C663.87 365.247 665.638 365.855 667.486 366.062C669.335 366.27 671.212 366.072 672.959 365.485C674.707 364.898 676.276 363.938 677.534 362.687C678.793 361.435 679.705 359.927 680.195 358.289Z" fill="#2F2E41"/>
<path d="M532.11 334.383C534.087 337.388 536.879 339.878 540.217 341.616C543.555 343.354 547.327 344.281 551.171 344.308L637.998 344.907L641.764 324.998L603.354 314.701L635.739 292.046L600.342 254.288L536.05 308.91C532.292 312.103 529.85 316.374 529.133 321.011C528.416 325.647 529.467 330.368 532.11 334.383Z" fill="#2F2E41"/>
<path d="M651.555 470.539H671.889C690.147 356.461 708.731 242.065 653.814 199.367L589.045 208.978L597.329 259.094L633.48 296.852L651.555 470.539Z" fill="#2F2E41"/>
<path d="M633.68 496.38C635.271 496.776 636.937 496.86 638.567 496.627C640.197 496.394 641.755 495.849 643.137 495.028L665.216 492.323C669.961 489.505 673.388 485.182 674.833 480.191C676.277 475.2 675.637 469.898 673.035 465.314C663.685 470.32 655.483 469.622 648.355 463.583C643.319 472.852 635.021 472.287 627.097 480.096C626.047 481.499 625.381 483.11 625.153 484.795C624.925 486.481 625.142 488.191 625.786 489.784C626.43 491.377 627.483 492.807 628.856 493.955C630.229 495.102 631.883 495.934 633.68 496.38Z" fill="#2F2E41"/>
<path d="M603.354 123.165L641.011 114.926C634.757 103.257 634.242 90.2726 637.245 76.4819L611.639 75.7954C610.837 92.9445 608.409 108.966 603.354 123.165Z" fill="#FFB8B8"/>
<path d="M593.005 229.649C620.418 246.676 639.786 230.231 654.567 204.859C652.513 189.334 655.839 170.755 661.998 150.567C664.737 141.663 663.715 132.146 659.132 123.895C654.549 115.645 646.74 109.26 637.245 106.002L604.861 118.359C577.362 138.791 571.95 160.922 582.267 184.264L593.005 229.649Z" fill="#FF5E57"/>
<path d="M671.889 140.327L702.014 154.744L648.542 183.578L641.102 200.307C640.605 201.423 640.363 202.621 640.391 203.825C640.418 205.03 640.715 206.217 641.262 207.313C641.809 208.41 642.596 209.394 643.573 210.205C644.551 211.015 645.7 211.636 646.95 212.029C648.37 212.475 649.885 212.616 651.375 212.44C652.865 212.264 654.29 211.775 655.538 211.013C656.787 210.251 657.825 209.236 658.571 208.048C659.317 206.859 659.752 205.529 659.84 204.162L660.592 192.502L728.555 172.058C730.845 171.37 732.933 170.215 734.66 168.682C736.388 167.148 737.71 165.277 738.527 163.209C739.718 160.194 739.778 156.905 738.699 153.856C737.621 150.807 735.463 148.169 732.565 146.357L677.914 112.181L671.889 140.327Z" fill="#FFB8B8"/>
<path d="M641.764 143.073C654.328 138.054 665.753 143.507 680.174 147.879L682.433 111.494C668.114 104.537 654.462 102.662 641.764 108.062L641.764 143.073Z" fill="#FF5E57"/>
<path d="M626.735 93.8182C613.456 93.8182 602.692 84.0063 602.692 71.9027C602.692 59.7991 613.456 49.9872 626.735 49.9872C640.013 49.9872 650.777 59.7991 650.777 71.9027C650.777 84.0063 640.013 93.8182 626.735 93.8182Z" fill="#FFB8B8"/>
<path d="M597.972 69.1376C621.776 71.2627 639.914 67.7141 651.507 57.6099V49.4727H599.992L597.972 69.1376Z" fill="#2F2E41"/>
</g>
<defs>
<clipPath id="clip0">
<rect width="801" height="508" fill="white" transform="matrix(-1 0 0 1 801 0)"/>
</clipPath>
</defs>
</svg>
